<svg version="1.1" viewBox="0.0 0.0 381.6089238845144 133.02099737532808" fill="none" stroke="none" stroke-linecap="square" stroke-miterlimit="10" xmlns:xlink="http://www.w3.org/1999/xlink" xmlns="http://www.w3.org/2000/svg"><clipPath id="p.0"><path d="m0 0l381.60892 0l0 133.021l-381.60892 0l0 -133.021z" clip-rule="nonzero"/></clipPath><g clip-path="url(#p.0)"><path fill="#000000" fill-opacity="0.0" d="m0 0l381.60892 0l0 133.021l-381.60892 0z" fill-rule="evenodd"/><path fill="#000000" fill-opacity="0.0" d="m-129.3517 -0.001312336l510.70868 0l0 91.55905l-510.70868 0z" fill-rule="evenodd"/><path fill="#000000" d="m29.772806 25.14009l-5.234375 -0.78125l0 -3.1875l8.624998 0q2.1875 0 5.515625 -0.265625q3.0625 -0.25 4.546875 -0.25q8.828125 0 12.625 2.75q3.8125 2.75 3.8125 8.0625q0 4.546875 -2.625 7.8125q-2.625 3.265625 -7.15625 4.09375q6.140625 -0.125 9.65625 2.890625q3.515625 3.0 3.515625 8.1875q0 6.453125 -4.578125 10.5625q-4.5625 4.09375 -15.125 4.09375q-2.3125 0 -4.421875 -0.203125q-4.984375 -0.1875 -5.953125 -0.1875l-8.515623 0l0 -3.140625l5.3125 -0.640625l0 -39.796875zm6.796873 17.015625q0.890625 0.0625 3.640625 0.0625l3.515625 0q4.484375 0 6.78125 -2.484375q2.3125 -2.5 2.3125 -7.109375q0 -4.484375 -2.3125 -6.5625q-2.296875 -2.078125 -7.859375 -2.078125q-2.3125 0 -4.734375 0.25l-1.34375 0.125l0 17.796875zm0 22.984375q1.46875 0.5 6.65625 0.5q6.453125 0 9.359375 -2.65625q2.921875 -2.65625 2.921875 -7.640625q0 -4.921875 -2.53125 -7.15625q-2.53125 -2.25 -8.15625 -2.25q-6.53125 0 -8.25 0.125l0 19.078125zm31.80867 0.4375l4.796875 -0.375l0 -27.078125l-4.609375 -1.15625l0 -3.453125l8.828125 -1.15625l0.125 0l1.40625 1.15625l0 1.15625l-0.1875 4.984375l0.1875 0q0.640625 -1.078125 2.296875 -2.796875q1.671875 -1.734375 4.296875 -3.171875q2.625 -1.453125 5.703125 -1.453125q1.28125 0 2.109375 0.328125l0 7.171875q-0.453125 -0.328125 -1.453125 -0.609375q-0.984375 -0.296875 -2.203125 -0.296875q-5.296875 0 -9.84375 3.265625l0 23.046875l8.125 0.5l0 3.078125l-19.578125 0l0 -3.140625zm36.733826 -38.78125q-2.046875 0 -3.078125 -1.140625q-1.015625 -1.15625 -1.015625 -2.953125q0 -2.046875 1.234375 -3.390625q1.25 -1.34375 3.4375 -1.34375q2.171875 0 3.1875 1.15625q1.03125 1.140625 1.03125 2.9375q0 2.171875 -1.25 3.453125q-1.25 1.28125 -3.484375 1.28125l-0.0625 0zm-2.5625 11.328125l-4.859375 -1.15625l0 -3.390625l9.90625 -1.21875l0.140625 0l1.46875 1.15625l0 31.5625l5.109375 0.5l0 3.140625l-16.953125 0l0 -3.140625l5.1875 -0.578125l0 -26.875zm31.608849 47.875q-8.187508 0 -11.875008 -2.59375q-3.671875 -2.59375 -3.671875 -7.140625q0 -2.8125 1.75 -5.1875q1.765625 -2.359375 4.203125 -3.578125q-2.953125 -1.65625 -2.953125 -5.375q0 -2.296875 1.34375 -4.34375q1.34375 -2.046875 3.53125 -3.140625q-3.203125 -1.40625 -4.90625 -4.03125q-1.6875 -2.625 -1.6875 -6.203125q0 -3.71875 2.078125 -6.46875q2.078125 -2.75 5.5 -4.21875q3.4218826 -1.484375 7.2656326 -1.484375q6.46875 0 10.109375 2.6875q0.96875 -0.953125 2.953125 -1.84375q1.984375 -0.90625 4.21875 -0.90625l2.171875 0l0 5.640625l-7.03125 0q1.53125 2.359375 1.53125 5.5q0 3.78125 -1.890625 6.6875q-1.890625 2.90625 -5.25 4.515625q-3.359375 1.59375 -7.578125 1.59375q-2.75 0 -4.921875 -0.578125q-0.90625 0.90625 -1.4843826 2.0q-0.5625 1.078125 -0.5625 2.09375q0 2.3125 1.5312576 3.171875q1.53125 0.859375 5.5 0.859375l7.234375 0q6.203125 0 9.203125 2.375q3.015625 2.375 3.015625 6.71875q0 3.65625 -2.625 6.6875q-2.625 3.046875 -7.078125 4.796875q-4.4375 1.765625 -9.625 1.765625zm0.453125 -33.40625q7.296875 0 7.296875 -8.640625q0 -4.296875 -1.890625 -6.3125q-1.890625 -2.015625 -5.65625 -2.015625q-3.53125 0 -5.578125 1.953125q-2.0468826 1.953125 -2.0468826 6.25q0 4.03125 1.9531326 6.40625q1.953125 2.359375 5.921875 2.359375zm0.125 29.6875q3.140625 0 5.921875 -0.921875q2.78125 -0.921875 4.5 -2.75q1.734375 -1.828125 1.734375 -4.265625q0 -2.875 -1.53125 -4.1875q-1.53125 -1.3125 -5.953125 -1.3125l-7.546875 0q-2.5625 0 -4.0312576 -0.3125q-2.625 2.875 -2.625 6.453125q0 3.59375 2.171875 5.4375q2.1718826 1.859375 7.3593826 1.859375zm22.97293 -23.15625q0 -6.015625 6.015625 -8.859375q6.015625 -2.859375 15.234375 -3.046875l0 -1.796875q0 -3.0 -0.640625 -4.734375q-0.640625 -1.734375 -2.203125 -2.53125q-1.5625 -0.796875 -4.453125 -0.796875q-3.265625 0 -5.859375 0.9375q-2.578125 0.921875 -5.140625 2.265625l-1.609375 -3.328125q0.84375 -0.703125 3.078125 -1.859375q2.234375 -1.15625 5.171875 -2.046875q2.953125 -0.890625 5.90625 -0.890625q4.53125 0 7.1875 1.25q2.65625 1.234375 3.8125 4.0q1.15625 2.75 1.15625 7.34375l0 20.546875l3.765625 0l0 2.828125q-1.265625 0.3125 -3.21875 0.625q-1.953125 0.328125 -3.4375 0.328125q-1.78125 0 -2.421875 -0.546875q-0.640625 -0.546875 -0.640625 -2.390625l0 -2.125q-1.921875 1.921875 -4.703125 3.53125q-2.78125 1.59375 -6.3125 1.59375q-4.609375 0 -7.65625 -2.65625q-3.03125 -2.65625 -3.03125 -7.640625zm13.4375 5.953125q1.671875 0 3.84375 -1.03125q2.1875 -1.03125 3.96875 -2.4375l0 -11.0q-6.96875 0 -10.53125 2.140625q-3.546875 2.140625 -3.546875 5.59375q0 3.46875 1.6875 5.109375q1.703125 1.625 4.578125 1.625zm36.294556 4.34375q-3.84375 0 -7.046875 -1.921875q-3.1875 -1.921875 -5.078125 -5.890625q-1.890625 -3.96875 -1.890625 -9.78125q0 -5.453125 2.234375 -9.921875q2.25 -4.484375 6.4375 -7.078125q4.1875 -2.59375 9.890625 -2.59375q3.265625 0 5.953125 0.703125l0 -11.96875l-6.53125 -0.765625l0 -2.75l11.515625 -1.15625l0.203125 0l1.40625 1.03125l0 48.125l3.703125 0l0 2.953125q-2.046875 0.4375 -3.546875 0.6875q-1.5 0.265625 -3.171875 0.265625q-1.65625 0 -2.359375 -0.578125q-0.703125 -0.578125 -0.703125 -2.4375l0 -2.046875q-1.796875 2.1875 -4.71875 3.65625q-2.90625 1.46875 -6.296875 1.46875zm2.5625 -4.546875q2.5 0 4.671875 -1.109375q2.171875 -1.125 3.265625 -2.59375l0 -23.421875q-0.515625 -0.78125 -2.40625 -1.375q-1.890625 -0.609375 -4.0 -0.609375q-4.984375 0 -7.96875 3.8125q-2.96875 3.796875 -2.96875 11.734375q0 6.90625 2.625 10.234375q2.625 3.328125 6.78125 3.328125z" fill-rule="nonzero"/><path fill="#000000" fill-opacity="0.0" d="m14.607214 78.72441l376.189 0l0 58.078735l-376.189 0z" fill-rule="evenodd"/><path fill="#000000" d="m24.185339 101.24628l11.124998 0l0 3.921875l-0.96875 0l-0.609375 -2.796875l-3.046873 0l0 11.0625l1.9687481 0.453125l0 0.796875l-5.812498 0l0 -0.796875l1.96875 -0.453125l0 -11.0625l-3.078125 0l-0.578125 2.796875l-0.96875 0l0 -3.921875zm20.104643 8.515625l-6.5 0q0 1.359375 0.375 2.25q0.359375 0.859375 1.046875 1.234375q0.703125 0.375 1.5 0.375q0.875 0 1.59375 -0.359375q0.734375 -0.375 1.3125 -1.0l0.609375 0.4375q-0.65625 0.90625 -1.59375 1.546875q-0.9375 0.625 -2.40625 0.625q-1.28125 0 -2.28125 -0.546875q-0.984375 -0.5625 -1.5 -1.625q-0.28125 -0.578125 -0.421875 -1.28125q-0.125 -0.703125 -0.125 -1.515625q0 -2.609375 1.203125 -4.046875q1.203125 -1.4375 3.28125 -1.4375q1.890625 0 2.921875 1.1875q1.046875 1.1875 1.046875 3.28125q0 0.1875 -0.015625 0.34375q0 0.15625 -0.046875 0.53125zm-4.015625 -4.328125q-2.25 0 -2.46875 3.40625l4.65625 0l0 -0.609375q0 -1.34375 -0.5625 -2.0625q-0.5625 -0.734375 -1.625 -0.734375zm10.539627 -1.015625q1.078125 0 1.859375 0.375q0.796875 0.359375 1.234375 1.015625q0.4375 0.640625 0.4375 1.53125q0 0.6875 -0.296875 1.0625q-0.28125 0.375 -0.859375 0.375q-0.515625 0 -0.828125 -0.296875q-0.296875 -0.3125 -0.296875 -0.8125q0 -0.46875 0.25 -0.796875q0.25 -0.34375 0.671875 -0.46875q-0.28125 -0.546875 -0.796875 -0.78125q-0.5 -0.25 -1.265625 -0.25q-1.53125 0 -2.234375 1.0q-0.703125 1.0 -0.703125 3.109375q0 0.90625 0.125 1.578125q0.125 0.65625 0.359375 1.125q0.375 0.6875 0.984375 1.0625q0.625 0.375 1.46875 0.375q0.859375 0 1.640625 -0.375q0.78125 -0.375 1.34375 -1.0625l0.5625 0.453125q-0.75 1.125 -1.71875 1.6875q-0.96875 0.546875 -2.28125 0.546875q-1.296875 0 -2.265625 -0.53125q-0.953125 -0.53125 -1.5 -1.5625q-0.671875 -1.25 -0.671875 -3.015625q0 -1.625 0.578125 -2.8125q0.59375 -1.203125 1.671875 -1.859375q1.09375 -0.671875 2.53125 -0.671875zm12.718506 9.140625l0 -4.15625q0 -1.21875 -0.0625 -1.8125q-0.0625 -0.59375 -0.234375 -0.921875q-0.453125 -0.921875 -1.640625 -0.921875q-0.53125 0 -1.015625 0.1875q-0.484375 0.1875 -0.859375 0.5q-0.40625 0.359375 -0.609375 0.859375q-0.1875 0.484375 -0.21875 1.21875l0 5.046875l1.25 0.359375l0 0.765625l-4.5 0l0 -0.765625l1.4375 -0.359375l0 -12.3125l-1.4375 -0.34375l0 -0.765625l3.25 0l0 6.21875q0.546875 -0.890625 1.46875 -1.40625q0.9375 -0.53125 2.0 -0.53125q0.734375 0 1.328125 0.265625q0.6093788 0.265625 0.9687538 0.75q0.359375 0.515625 0.515625 1.46875q0.171875 0.9375 0.171875 2.53125l0 4.125l1.4375 0.359375l0 0.765625l-4.500004 0l0 -0.765625l1.25 -0.359375zm5.764637 0l0 -7.828125l-1.4375 -0.359375l0 -0.765625l2.6875 0l0.40625 1.875l0.078125 0q0.5625 -0.953125 1.515625 -1.5q0.953125 -0.5625 2.03125 -0.5625q1.546875 0 2.296875 1.015625q0.375 0.515625 0.53125 1.46875q0.15625 0.9375 0.15625 2.53125l0 4.125l1.4375 0.359375l0 0.765625l-4.5 0l0 -0.765625l1.25 -0.359375l0 -4.15625q0 -1.21875 -0.0625 -1.8125q-0.0625 -0.59375 -0.234375 -0.921875q-0.21875 -0.453125 -0.640625 -0.6875q-0.421875 -0.234375 -1.0 -0.234375q-1.078125 0 -1.875 0.6875q-0.75 0.6875 -0.828125 2.15625l0 4.96875l1.25 0.359375l0 0.765625l-4.5 0l0 -0.765625l1.4375 -0.359375zm12.219849 -7.828125l-1.4375 -0.359375l0 -0.765625l3.25 0l0 8.953125l1.4375 0.359375l0 0.765625l-4.6875 0l0 -0.765625l1.4375 -0.359375l0 -7.828125zm-0.265625 -4.125q0 -0.546875 0.3125 -0.859375q0.328125 -0.3125 0.84375 -0.3125q0.546875 0 0.859375 0.3125q0.3125 0.3125 0.3125 0.859375q0 0.515625 -0.3125 0.84375q-0.3125 0.3125 -0.859375 0.3125q-0.53125 0 -0.84375 -0.296875q-0.3125 -0.3125 -0.3125 -0.859375zm9.61763 2.8125q1.078125 0 1.859375 0.375q0.796875 0.359375 1.234375 1.015625q0.4375 0.640625 0.4375 1.53125q0 0.6875 -0.296875 1.0625q-0.28125 0.375 -0.859375 0.375q-0.515625 0 -0.828125 -0.296875q-0.296875 -0.3125 -0.296875 -0.8125q0 -0.46875 0.25 -0.796875q0.25 -0.34375 0.671875 -0.46875q-0.28125 -0.546875 -0.796875 -0.78125q-0.5 -0.25 -1.265625 -0.25q-1.53125 0 -2.234375 1.0q-0.703125 1.0 -0.703125 3.109375q0 0.90625 0.125 1.578125q0.125 0.65625 0.359375 1.125q0.375 0.6875 0.984375 1.0625q0.625 0.375 1.46875 0.375q0.859375 0 1.640625 -0.375q0.78125 -0.375 1.34375 -1.0625l0.5625 0.453125q-0.75 1.125 -1.71875 1.6875q-0.96875 0.546875 -2.28125 0.546875q-1.296875 0 -2.265625 -0.53125q-0.953125 -0.53125 -1.5 -1.5625q-0.671875 -1.25 -0.671875 -3.015625q0 -1.625 0.578125 -2.8125q0.59375 -1.203125 1.671875 -1.859375q1.09375 -0.671875 2.53125 -0.671875zm5.062256 8.078125q0 -1.453125 1.359375 -2.28125q1.375 -0.84375 4.515625 -1.3125q-0.0625 -1.109375 -0.203125 -1.71875q-0.125 -0.609375 -0.328125 -0.984375q-0.265625 -0.484375 -0.734375 -0.71875q-0.46875 -0.234375 -1.0 -0.234375q-0.53125 0 -0.953125 0.1875q-0.40625 0.1875 -0.5625 0.5q0.265625 0.1875 0.375 0.484375q0.125 0.296875 0.125 0.5625q0 0.46875 -0.3125 0.734375q-0.296875 0.265625 -0.75 0.265625q-0.4375 0 -0.734375 -0.296875q-0.28125 -0.296875 -0.28125 -0.828125q0 -0.796875 0.53125 -1.328125q0.546875 -0.546875 1.375 -0.828125q0.828125 -0.28125 1.671875 -0.28125q0.765625 0 1.40625 0.234375q0.640625 0.234375 1.09375 0.6875q1.15625 1.15625 1.15625 4.09375l0 2.71875q0 0.90625 0.109375 1.265625q0.125 0.34375 0.546875 0.34375l0.828125 0l0 0.5625q-1.34375 0.546875 -2.078125 0.546875q-0.578125 0 -0.78125 -0.421875q-0.1875 -0.421875 -0.1875 -1.609375l-0.078125 0q-0.578125 0.953125 -1.53125 1.5q-0.953125 0.53125 -2.046875 0.53125q-1.1875 0 -1.859375 -0.625q-0.671875 -0.640625 -0.671875 -1.75zm3.3125 1.296875q0.515625 0 1.078125 -0.265625q0.578125 -0.28125 0.96875 -0.765625q0.296875 -0.375 0.4375 -0.890625q0.140625 -0.515625 0.140625 -1.203125q0 -0.3125 -0.015625 -0.609375q-0.015625 -0.3125 -0.0625 -0.59375q-1.5 0.296875 -2.359375 0.640625q-0.859375 0.34375 -1.21875 0.828125q-0.359375 0.46875 -0.359375 1.171875q0 0.8125 0.359375 1.25q0.375 0.4375 1.03125 0.4375zm7.955902 -0.234375l0 -12.3125l-1.4375 -0.34375l0 -0.765625l3.25 0l0 13.421875l1.4375 0.359375l0 0.765625l-4.6875 0l0 -0.765625l1.4375 -0.359375zm14.1723175 -9.140625q1.078125 0 1.859375 0.375q0.796875 0.359375 1.234375 1.015625q0.4375 0.640625 0.4375 1.53125q0 0.6875 -0.296875 1.0625q-0.28125 0.375 -0.859375 0.375q-0.515625 0 -0.828125 -0.296875q-0.296875 -0.3125 -0.296875 -0.8125q0 -0.46875 0.25 -0.796875q0.25 -0.34375 0.671875 -0.46875q-0.28125 -0.546875 -0.796875 -0.78125q-0.5 -0.25 -1.265625 -0.25q-1.53125 0 -2.234375 1.0q-0.703125 1.0 -0.703125 3.109375q0 0.90625 0.125 1.578125q0.125 0.65625 0.359375 1.125q0.375 0.6875 0.984375 1.0625q0.625 0.375 1.46875 0.375q0.859375 0 1.640625 -0.375q0.78125 -0.375 1.34375 -1.0625l0.5625 0.453125q-0.75 1.125 -1.71875 1.6875q-0.96875 0.546875 -2.28125 0.546875q-1.296875 0 -2.265625 -0.53125q-0.953125 -0.53125 -1.5 -1.5625q-0.671875 -1.25 -0.671875 -3.015625q0 -1.625 0.578125 -2.8125q0.59375 -1.203125 1.671875 -1.859375q1.09375 -0.671875 2.53125 -0.671875zm14.359123 5.140625q0 1.203125 -0.375 2.296875q-0.359375 1.09375 -1.0 1.796875q-0.5625 0.625 -1.390625 0.921875q-0.8125 0.296875 -1.859375 0.296875q-1.03125 0 -1.828125 -0.28125q-0.796875 -0.296875 -1.3593674 -0.890625q-0.640625 -0.6875 -0.984375 -1.703125q-0.34375 -1.03125 -0.34375 -2.21875q0 -1.21875 0.34375 -2.328125q0.359375 -1.109375 1.03125 -1.8125q0.5937424 -0.640625 1.3906174 -0.921875q0.796875 -0.296875 1.828125 -0.296875q1.015625 0 1.828125 0.296875q0.828125 0.28125 1.390625 0.890625q0.65625 0.6875 0.984375 1.71875q0.34375 1.03125 0.34375 2.234375zm-7.140625 0.015625q0 1.140625 0.171875 1.96875q0.171875 0.828125 0.5 1.375q0.3125 0.453125 0.75 0.71875q0.4375 0.265625 1.140625 0.265625q1.296875 0 1.921875 -0.875q0.34375 -0.484375 0.5 -1.34375q0.15625 -0.859375 0.15625 -1.984375q0 -1.109375 -0.171875 -1.953125q-0.171875 -0.84375 -0.5 -1.359375q-0.296875 -0.484375 -0.75 -0.734375q-0.453125 -0.265625 -1.171875 -0.265625q-1.296875 0 -1.875 0.859375q-0.671875 1.046875 -0.671875 3.328125zm8.701691 2.921875q0 -1.453125 1.359375 -2.28125q1.375 -0.84375 4.515625 -1.3125q-0.0625 -1.109375 -0.203125 -1.71875q-0.125 -0.609375 -0.328125 -0.984375q-0.265625 -0.484375 -0.734375 -0.71875q-0.46875 -0.234375 -1.0 -0.234375q-0.53125 0 -0.953125 0.1875q-0.40625 0.1875 -0.5625 0.5q0.265625 0.1875 0.375 0.484375q0.125 0.296875 0.125 0.5625q0 0.46875 -0.3125 0.734375q-0.296875 0.265625 -0.75 0.265625q-0.4375 0 -0.734375 -0.296875q-0.28125 -0.296875 -0.28125 -0.828125q0 -0.796875 0.53125 -1.328125q0.546875 -0.546875 1.375 -0.828125q0.828125 -0.28125 1.671875 -0.28125q0.765625 0 1.40625 0.234375q0.640625 0.234375 1.09375 0.6875q1.15625 1.15625 1.15625 4.09375l0 2.71875q0 0.90625 0.109375 1.265625q0.125 0.34375 0.546875 0.34375l0.828125 0l0 0.5625q-1.34375 0.546875 -2.078125 0.546875q-0.578125 0 -0.78125 -0.421875q-0.1875 -0.421875 -0.1875 -1.609375l-0.078125 0q-0.578125 0.953125 -1.53125 1.5q-0.953125 0.53125 -2.046875 0.53125q-1.1875 0 -1.859375 -0.625q-0.671875 -0.640625 -0.671875 -1.75zm3.3125 1.296875q0.515625 0 1.078125 -0.265625q0.578125 -0.28125 0.96875 -0.765625q0.296875 -0.375 0.4375 -0.890625q0.140625 -0.515625 0.140625 -1.203125q0 -0.3125 -0.015625 -0.609375q-0.015625 -0.3125 -0.0625 -0.59375q-1.5 0.296875 -2.359375 0.640625q-0.859375 0.34375 -1.21875 0.828125q-0.359375 0.46875 -0.359375 1.171875q0 0.8125 0.359375 1.25q0.375 0.4375 1.03125 0.4375zm11.643402 -9.375q1.078125 0 1.859375 0.375q0.796875 0.359375 1.234375 1.015625q0.4375 0.640625 0.4375 1.53125q0 0.6875 -0.296875 1.0625q-0.28125 0.375 -0.859375 0.375q-0.515625 0 -0.828125 -0.296875q-0.296875 -0.3125 -0.296875 -0.8125q0 -0.46875 0.25 -0.796875q0.25 -0.34375 0.671875 -0.46875q-0.28125 -0.546875 -0.796875 -0.78125q-0.5 -0.25 -1.265625 -0.25q-1.53125 0 -2.234375 1.0q-0.703125 1.0 -0.703125 3.109375q0 0.90625 0.125 1.578125q0.125 0.65625 0.359375 1.125q0.375 0.6875 0.984375 1.0625q0.625 0.375 1.46875 0.375q0.859375 0 1.640625 -0.375q0.78125 -0.375 1.34375 -1.0625l0.5625 0.453125q-0.75 1.125 -1.71875 1.6875q-0.96875 0.546875 -2.28125 0.546875q-1.296875 0 -2.265625 -0.53125q-0.953125 -0.53125 -1.5 -1.5625q-0.671875 -1.25 -0.671875 -3.015625q0 -1.625 0.578125 -2.8125q0.59375 -1.203125 1.671875 -1.859375q1.09375 -0.671875 2.53125 -0.671875zm12.718506 9.140625l0 -4.15625q0 -1.21875 -0.0625 -1.8125q-0.0625 -0.59375 -0.234375 -0.921875q-0.453125 -0.921875 -1.640625 -0.921875q-0.53125 0 -1.015625 0.1875q-0.484375 0.1875 -0.859375 0.5q-0.40625 0.359375 -0.609375 0.859375q-0.1875 0.484375 -0.21875 1.21875l0 5.046875l1.25 0.359375l0 0.765625l-4.5 0l0 -0.765625l1.4375 -0.359375l0 -12.3125l-1.4375 -0.34375l0 -0.765625l3.25 0l0 6.21875q0.546875 -0.890625 1.46875 -1.40625q0.9375 -0.53125 2.0 -0.53125q0.734375 0 1.328125 0.265625q0.609375 0.265625 0.96875 0.75q0.359375 0.515625 0.515625 1.46875q0.171875 0.9375 0.171875 2.53125l0 4.125l1.4375 0.359375l0 0.765625l-4.5 0l0 -0.765625l1.25 -0.359375zm5.764633 -7.828125l-1.4375 -0.359375l0 -0.765625l3.25 0l0 8.953125l1.4375 0.359375l0 0.765625l-4.6875 0l0 -0.765625l1.4375 -0.359375l0 -7.828125zm-0.265625 -4.125q0 -0.546875 0.3125 -0.859375q0.328125 -0.3125 0.84375 -0.3125q0.546875 0 0.859375 0.3125q0.3125 0.3125 0.3125 0.859375q0 0.515625 -0.3125 0.84375q-0.3125 0.3125 -0.859375 0.3125q-0.53125 0 -0.84375 -0.296875q-0.3125 -0.3125 -0.3125 -0.859375zm6.08638 11.953125l0 -7.828125l-1.4375 -0.359375l0 -0.765625l2.6875 0l0.40625 1.875l0.078125 0q0.5625 -0.953125 1.515625 -1.5q0.953125 -0.5625 2.03125 -0.5625q1.546875 0 2.296875 1.015625q0.375 0.515625 0.53125 1.46875q0.15625 0.9375 0.15625 2.53125l0 4.125l1.4375 0.359375l0 0.765625l-4.5 0l0 -0.765625l1.25 -0.359375l0 -4.15625q0 -1.21875 -0.0625 -1.8125q-0.0625 -0.59375 -0.234375 -0.921875q-0.21875 -0.453125 -0.640625 -0.6875q-0.421875 -0.234375 -1.0 -0.234375q-1.078125 0 -1.875 0.6875q-0.75 0.6875 -0.828125 2.15625l0 4.96875l1.25 0.359375l0 0.765625l-4.5 0l0 -0.765625l1.4375 -0.359375zm19.563599 1.3125q0 1.421875 -1.203125 2.328125q-1.203125 0.921875 -3.34375 0.921875q-1.421875 0 -2.390625 -0.28125q-0.96875 -0.28125 -1.46875 -0.8125q-0.484375 -0.515625 -0.484375 -1.25q0 -0.875 0.515625 -1.34375q0.53125 -0.484375 1.4375 -0.609375l0 -0.078125q-1.234375 -0.34375 -1.234375 -1.453125q0 -0.390625 0.1875 -0.734375q0.1875 -0.34375 0.5625 -0.640625q0.390625 -0.296875 0.984375 -0.5q-0.90625 -0.34375 -1.421875 -1.046875q-0.5 -0.71875 -0.5 -1.734375q0 -1.5 1.03125 -2.359375q1.046875 -0.859375 2.78125 -0.859375q0.875 0 1.5625 0.21875q0.6875 0.21875 1.1875 0.640625l0.625 -0.21875l1.71875 -0.828125l0.3125 0l0 1.640625l-0.3125 0l-1.3125 -0.140625l-0.625 0q0.53125 0.75 0.53125 1.796875q0 1.46875 -1.015625 2.3125q-1.015625 0.84375 -2.796875 0.84375q-0.1875 0 -0.375 0q-0.1875 -0.015625 -0.375 -0.03125q-0.75 0.109375 -1.109375 0.390625q-0.359375 0.28125 -0.359375 0.71875q0 0.421875 0.328125 0.578125q0.34375 0.15625 1.3125 0.15625l2.15625 0q1.53125 0 2.3125 0.578125q0.78125 0.5625 0.78125 1.796875zm-3.90625 -0.9375l-1.21875 0q-1.25 0 -1.8125 0.4375q-0.5625 0.421875 -0.5625 1.109375q0 1.703125 2.921875 1.703125q1.578125 0 2.40625 -0.484375q0.828125 -0.484375 0.828125 -1.421875q0 -0.75 -0.5625 -1.046875q-0.5625 -0.296875 -2.0 -0.296875zm-2.796875 -6.375q0 1.125 0.5 1.703125q0.515625 0.578125 1.59375 0.578125q1.109375 0 1.609375 -0.578125q0.5 -0.578125 0.5 -1.703125q0 -1.125 -0.5 -1.703125q-0.5 -0.578125 -1.609375 -0.578125q-1.078125 0 -1.59375 0.578125q-0.5 0.578125 -0.5 1.703125zm12.764328 -2.015625l0 -0.671875l1.8125 -0.265625l0 -0.1875q0 -2.140625 0.9375 -3.296875q0.9375 -1.171875 2.515625 -1.171875q1.109375 0 1.765625 0.53125q0.65625 0.53125 0.65625 1.34375q0 0.53125 -0.265625 0.796875q-0.25 0.265625 -0.703125 0.265625q-0.421875 0 -0.6875 -0.234375q-0.265625 -0.25 -0.265625 -0.6875q0 -0.484375 0.3125 -0.96875q-0.328125 -0.34375 -0.859375 -0.34375q-0.4375 0 -0.75 0.1875q-0.40625 0.25 -0.59375 0.703125q-0.171875 0.4375 -0.21875 0.984375q-0.03125 0.546875 -0.03125 1.15625l0 0.921875l2.390625 0l0 0.9375l-2.390625 0l0 8.015625l2.015625 0.359375l0 0.765625l-5.265625 0l0 -0.765625l1.4375 -0.359375l0 -8.015625l-1.8125 0zm16.276093 4.015625q0 1.203125 -0.375 2.296875q-0.359375 1.09375 -1.0 1.796875q-0.5625 0.625 -1.390625 0.921875q-0.8125 0.296875 -1.859375 0.296875q-1.03125 0 -1.828125 -0.28125q-0.796875 -0.296875 -1.359375 -0.890625q-0.640625 -0.6875 -0.984375 -1.703125q-0.34375 -1.03125 -0.34375 -2.21875q0 -1.21875 0.34375 -2.328125q0.359375 -1.109375 1.03125 -1.8125q0.59375 -0.640625 1.390625 -0.921875q0.796875 -0.296875 1.828125 -0.296875q1.015625 0 1.828125 0.296875q0.828125 0.28125 1.390625 0.890625q0.65625 0.6875 0.984375 1.71875q0.34375 1.03125 0.34375 2.234375zm-7.140625 0.015625q0 1.140625 0.171875 1.96875q0.171875 0.828125 0.5 1.375q0.3125 0.453125 0.75 0.71875q0.4375 0.265625 1.140625 0.265625q1.296875 0 1.921875 -0.875q0.34375 -0.484375 0.5 -1.34375q0.15625 -0.859375 0.15625 -1.984375q0 -1.109375 -0.171875 -1.953125q-0.171875 -0.84375 -0.5 -1.359375q-0.296875 -0.484375 -0.75 -0.734375q-0.453125 -0.265625 -1.171875 -0.265625q-1.296875 0 -1.875 0.859375q-0.671875 1.046875 -0.671875 3.328125zm14.279816 -3.890625q-0.0625 -0.046875 -0.171875 -0.078125q-0.109375 -0.03125 -0.203125 -0.03125q-0.21875 0 -0.484375 0.21875q-0.25 0.203125 -0.5 0.546875q-0.234375 0.34375 -0.4375 0.78125q-0.265625 0.640625 -0.421875 1.40625q-0.140625 0.75 -0.140625 1.546875l0 3.484375l2.015625 0.359375l0 0.765625l-5.265625 0l0 -0.765625l1.4375 -0.359375l0 -7.828125l-1.4375 -0.359375l0 -0.765625l2.6875 0l0.40625 2.46875l0.078125 0q0.421875 -1.265625 1.15625 -1.953125q0.734375 -0.703125 1.609375 -0.703125q0.71875 0 1.203125 0.46875q0.484375 0.453125 0.484375 1.21875q0 0.5625 -0.296875 0.890625q-0.28125 0.3125 -0.765625 0.3125q-0.484375 0 -0.765625 -0.296875q-0.28125 -0.3125 -0.28125 -0.8125q0 -0.109375 0.015625 -0.21875q0.03125 -0.109375 0.078125 -0.296875zm15.856979 4.078125l-6.5 0q0 1.359375 0.375 2.25q0.359375 0.859375 1.046875 1.234375q0.703125 0.375 1.5 0.375q0.875 0 1.59375 -0.359375q0.734375 -0.375 1.3125 -1.0l0.609375 0.4375q-0.65625 0.90625 -1.59375 1.546875q-0.9375 0.625 -2.40625 0.625q-1.28125 0 -2.28125 -0.546875q-0.984375 -0.5625 -1.5 -1.625q-0.28125 -0.578125 -0.421875 -1.28125q-0.125 -0.703125 -0.125 -1.515625q0 -2.609375 1.203125 -4.046875q1.203125 -1.4375 3.28125 -1.4375q1.890625 0 2.921875 1.1875q1.046875 1.1875 1.046875 3.28125q0 0.1875 -0.015625 0.34375q0 0.15625 -0.046875 0.53125zm-4.015625 -4.328125q-2.25 0 -2.46875 3.40625l4.65625 0l0 -0.609375q0 -1.34375 -0.5625 -2.0625q-0.5625 -0.734375 -1.625 -0.734375zm5.227127 0.109375l0 -0.671875l1.8125 -0.265625l0 -0.1875q0 -1.859375 1.0 -2.875q1.015625 -1.03125 2.8125 -1.03125q0.953125 0 1.65625 0.265625q0.71875 0.25 1.234375 0.890625q0.59375 -0.890625 1.40625 -1.296875q0.8125 -0.421875 2.15625 -0.421875q1.5156403 0 2.3906403 0.578125q0.875 0.5625 0.875 1.5q0 0.515625 -0.265625 0.78125q-0.25 0.265625 -0.75 0.265625q-0.4375 0 -0.671875 -0.234375q-0.234375 -0.234375 -0.234375 -0.6875q0 -0.25 0.078125 -0.484375q0.078125 -0.234375 0.21875 -0.484375q-0.296875 -0.265625 -0.73439026 -0.390625q-0.421875 -0.140625 -0.90625 -0.140625q-0.328125 0 -0.671875 0.0625q-0.328125 0.0625 -0.609375 0.15625q-0.703125 0.25 -1.015625 0.921875q-0.296875 0.65625 -0.296875 1.890625l0 0.921875l5.8437653 0l0 8.953125l1.4375 0.359375l0 0.765625l-4.5000153 0l0 -0.765625l1.2500153 -0.359375l0 -8.015625l-4.0312653 0l0 8.015625l1.453125 0.359375l0 0.765625l-4.515625 0l0 -0.765625l1.25 -0.359375l0 -8.015625l-4.046875 0l0 8.015625l1.453125 0.359375l0 0.765625l-4.703125 0l0 -0.765625l1.4375 -0.359375l0 -8.015625l-1.8125 0zm7.671875 -0.9375l0 -0.421875q0 -1.609375 -0.453125 -2.28125q-0.4375 -0.6875 -1.484375 -0.6875q-1.03125 0 -1.578125 0.625q-0.53125 0.625 -0.53125 1.84375l0 0.921875l4.046875 0zm15.196182 -0.1875q1.078125 0 1.859375 0.375q0.796875 0.359375 1.234375 1.015625q0.4375 0.640625 0.4375 1.53125q0 0.6875 -0.296875 1.0625q-0.28125 0.375 -0.859375 0.375q-0.515625 0 -0.828125 -0.296875q-0.296875 -0.3125 -0.296875 -0.8125q0 -0.46875 0.25 -0.796875q0.25 -0.34375 0.671875 -0.46875q-0.28125 -0.546875 -0.796875 -0.78125q-0.5 -0.25 -1.265625 -0.25q-1.53125 0 -2.234375 1.0q-0.703125 1.0 -0.703125 3.109375q0 0.90625 0.125 1.578125q0.125 0.65625 0.359375 1.125q0.375 0.6875 0.984375 1.0625q0.625 0.375 1.46875 0.375q0.859375 0 1.640625 -0.375q0.78125 -0.375 1.34375 -1.0625l0.5625 0.453125q-0.75 1.125 -1.71875 1.6875q-0.96875 0.546875 -2.28125 0.546875q-1.296875 0 -2.265625 -0.53125q-0.953125 -0.53125 -1.5 -1.5625q-0.671875 -1.25 -0.671875 -3.015625q0 -1.625 0.578125 -2.8125q0.59375 -1.203125 1.671875 -1.859375q1.09375 -0.671875 2.53125 -0.671875zm6.4684753 1.3125l-1.4374695 -0.359375l0 -0.765625l3.2499695 0l0 8.953125l1.4375 0.359375l0 0.765625l-4.6874695 0l0 -0.765625l1.4374695 -0.359375l0 -7.828125zm-0.265625 -4.125q0 -0.546875 0.3125 -0.859375q0.328125 -0.3125 0.84375 -0.3125q0.546875 0 0.859375 0.3125q0.3125 0.3125 0.3125 0.859375q0 0.515625 -0.3125 0.84375q-0.3125 0.3125 -0.859375 0.3125q-0.53125 0 -0.84375 -0.296875q-0.3125 -0.3125 -0.3125 -0.859375zm13.242645 8.15625l-6.5 0q0 1.359375 0.375 2.25q0.359375 0.859375 1.046875 1.234375q0.703125 0.375 1.5 0.375q0.875 0 1.59375 -0.359375q0.734375 -0.375 1.3125 -1.0l0.609375 0.4375q-0.65625 0.90625 -1.59375 1.546875q-0.9375 0.625 -2.40625 0.625q-1.28125 0 -2.28125 -0.546875q-0.984375 -0.5625 -1.5 -1.625q-0.28125 -0.578125 -0.421875 -1.28125q-0.125 -0.703125 -0.125 -1.515625q0 -2.609375 1.203125 -4.046875q1.203125 -1.4375 3.28125 -1.4375q1.890625 0 2.921875 1.1875q1.046875 1.1875 1.046875 3.28125q0 0.1875 -0.015625 0.34375q0 0.15625 -0.046875 0.53125zm-4.015625 -4.328125q-2.25 0 -2.46875 3.40625l4.65625 0l0 -0.609375q0 -1.34375 -0.5625 -2.0625q-0.5625 -0.734375 -1.625 -0.734375zm7.0083923 8.125l0 -7.828125l-1.4375 -0.359375l0 -0.765625l2.6875 0l0.40625 1.875l0.078125 0q0.5625 -0.953125 1.515625 -1.5q0.953125 -0.5625 2.03125 -0.5625q1.546875 0 2.296875 1.015625q0.375 0.515625 0.53125 1.46875q0.15625 0.9375 0.15625 2.53125l0 4.125l1.4375 0.359375l0 0.765625l-4.5 0l0 -0.765625l1.25 -0.359375l0 -4.15625q0 -1.21875 -0.0625 -1.8125q-0.0625 -0.59375 -0.234375 -0.921875q-0.21875 -0.453125 -0.640625 -0.6875q-0.421875 -0.234375 -1.0 -0.234375q-1.078125 0 -1.875 0.6875q-0.75 0.6875 -0.828125 2.15625l0 4.96875l1.25 0.359375l0 0.765625l-4.5 0l0 -0.765625l1.4375 -0.359375zm10.282349 -8.015625l0 -0.671875l1.8125 -0.265625l0.234375 -2.34375l1.5625 -0.234375l0 2.578125l2.390625 0l0 0.9375l-2.390625 0l0 6.65625q0 0.640625 0.015625 0.875q0.03125 0.234375 0.078125 0.375q0.0625 0.140625 0.203125 0.1875q0.15625 0.046875 0.5 0.046875l1.296875 0l0 0.53125q-0.890625 0.34375 -1.578125 0.5q-0.671875 0.15625 -1.09375 0.15625q-0.828125 0 -1.078125 -0.6875q-0.078125 -0.234375 -0.109375 -0.578125q-0.03125 -0.359375 -0.03125 -1.046875l0 -7.015625l-1.8125 0zm11.100464 0l0 -0.671875l1.8125 -0.265625l0.234375 -2.34375l1.5625 -0.234375l0 2.578125l2.390625 0l0 0.9375l-2.390625 0l0 6.65625q0 0.640625 0.015625 0.875q0.03125 0.234375 0.078125 0.375q0.0625 0.140625 0.203125 0.1875q0.15625 0.046875 0.5 0.046875l1.296875 0l0 0.53125q-0.890625 0.34375 -1.578125 0.5q-0.671875 0.15625 -1.09375 0.15625q-0.828125 0 -1.078125 -0.6875q-0.078125 -0.234375 -0.109375 -0.578125q-0.03125 -0.359375 -0.03125 -1.046875l0 -7.015625l-1.8125 0zm15.455536 4.21875l-6.5 0q0 1.359375 0.375 2.25q0.359375 0.859375 1.046875 1.234375q0.703125 0.375 1.5 0.375q0.875 0 1.59375 -0.359375q0.734375 -0.375 1.3125 -1.0l0.609375 0.4375q-0.65625 0.90625 -1.59375 1.546875q-0.9375 0.625 -2.40625 0.625q-1.28125 0 -2.28125 -0.546875q-0.984375 -0.5625 -1.5 -1.625q-0.28125 -0.578125 -0.421875 -1.28125q-0.125 -0.703125 -0.125 -1.515625q0 -2.609375 1.203125 -4.046875q1.203125 -1.4375 3.28125 -1.4375q1.890625 0 2.921875 1.1875q1.046875 1.1875 1.046875 3.28125q0 0.1875 -0.015625 0.34375q0 0.15625 -0.046875 0.53125zm-4.015625 -4.328125q-2.25 0 -2.46875 3.40625l4.65625 0l0 -0.609375q0 -1.34375 -0.5625 -2.0625q-0.5625 -0.734375 -1.625 -0.734375zm5.6021423 7.0625q0 -1.453125 1.359375 -2.28125q1.375 -0.84375 4.515625 -1.3125q-0.0625 -1.109375 -0.203125 -1.71875q-0.125 -0.609375 -0.328125 -0.984375q-0.265625 -0.484375 -0.734375 -0.71875q-0.46875 -0.234375 -1.0 -0.234375q-0.53125 0 -0.953125 0.1875q-0.40625 0.1875 -0.5625 0.5q0.265625 0.1875 0.375 0.484375q0.125 0.296875 0.125 0.5625q0 0.46875 -0.3125 0.734375q-0.296875 0.265625 -0.75 0.265625q-0.4375 0 -0.734375 -0.296875q-0.28125 -0.296875 -0.28125 -0.828125q0 -0.796875 0.53125 -1.328125q0.546875 -0.546875 1.375 -0.828125q0.828125 -0.28125 1.671875 -0.28125q0.765625 0 1.40625 0.234375q0.640625 0.234375 1.09375 0.6875q1.15625 1.15625 1.15625 4.09375l0 2.71875q0 0.90625 0.109375 1.265625q0.125 0.34375 0.546875 0.34375l0.828125 0l0 0.5625q-1.34375 0.546875 -2.078125 0.546875q-0.578125 0 -0.78125 -0.421875q-0.1875 -0.421875 -0.1875 -1.609375l-0.078125 0q-0.578125 0.953125 -1.53125 1.5q-0.953125 0.53125 -2.046875 0.53125q-1.1875 0 -1.859375 -0.625q-0.671875 -0.640625 -0.671875 -1.75zm3.3125 1.296875q0.515625 0 1.078125 -0.265625q0.578125 -0.28125 0.96875 -0.765625q0.296875 -0.375 0.4375 -0.890625q0.140625 -0.515625 0.140625 -1.203125q0 -0.3125 -0.015625 -0.609375q-0.015625 -0.3125 -0.0625 -0.59375q-1.5 0.296875 -2.359375 0.640625q-0.859375 0.34375 -1.21875 0.828125q-0.359375 0.46875 -0.359375 1.171875q0 0.8125 0.359375 1.25q0.375 0.4375 1.03125 0.4375zm8.112152 -0.234375l0 -7.828125l-1.4375 -0.359375l0 -0.765625l2.6875 0l0.40625 1.875l0.078125 0q0.546875 -0.9375 1.4375 -1.5q0.90625 -0.5625 1.9375 -0.5625q0.765625 0 1.359375 0.296875q0.59375 0.28125 0.875 0.71875q0.296875 0.46875 0.484375 1.234375q0.609375 -1.046875 1.546875 -1.640625q0.953125 -0.609375 2.046875 -0.609375q0.734375 0 1.328125 0.296875q0.609375 0.28125 0.921875 0.796875q0.21875 0.34375 0.34375 0.90625q0.140625 0.5625 0.1875 1.453125q0.0625 0.875 0.0625 2.234375l0 3.453125l1.4375 0.359375l0 0.765625l-4.484375 0l0 -0.765625l1.25 -0.359375l0 -4.15625q0 -1.21875 -0.078125 -1.8125q-0.0625 -0.59375 -0.234375 -0.921875q-0.21875 -0.453125 -0.625 -0.6875q-0.390625 -0.234375 -0.9375 -0.234375q-0.46875 0 -0.921875 0.1875q-0.4375 0.1875 -0.796875 0.5q-0.40625 0.375 -0.609375 0.890625q-0.1875 0.5 -0.21875 1.265625l0 4.96875l1.25 0.359375l0 0.765625l-4.3125 0l0 -0.765625l1.25 -0.359375l0 -4.15625q0 -1.21875 -0.078125 -1.8125q-0.0625 -0.59375 -0.21875 -0.921875q-0.234375 -0.453125 -0.640625 -0.6875q-0.390625 -0.234375 -0.9375 -0.234375q-0.46875 0 -0.921875 0.1875q-0.4375 0.1875 -0.796875 0.5q-0.40625 0.375 -0.609375 0.890625q-0.1875 0.5 -0.21875 1.265625l0 4.96875l1.25 0.359375l0 0.765625l-4.5 0l0 -0.765625l1.4375 -0.359375zm20.62735 0.453125q1.046875 0 1.703125 -0.421875q0.671875 -0.4375 0.671875 -1.203125q0 -0.609375 -0.421875 -0.984375q-0.40625 -0.375 -1.015625 -0.609375q-0.59375 -0.234375 -1.21875 -0.40625q-0.765625 -0.234375 -1.46875 -0.5625q-0.703125 -0.328125 -1.15625 -0.90625q-0.453125 -0.578125 -0.453125 -1.53125q0 -1.34375 0.984375 -2.15625q0.984375 -0.8125 2.734375 -0.8125q1.5 0 2.359375 0.625q0.875 0.625 0.875 1.71875q0 0.578125 -0.265625 0.921875q-0.265625 0.34375 -0.75 0.34375q-0.421875 0 -0.703125 -0.265625q-0.28125 -0.265625 -0.28125 -0.671875q0 -0.359375 0.1875 -0.640625q0.1875 -0.296875 0.484375 -0.421875q-0.28125 -0.390625 -0.71875 -0.5625q-0.4375 -0.1875 -1.125 -0.1875q-1.125 0 -1.6875 0.40625q-0.5625 0.40625 -0.5625 1.1875q0 0.5625 0.265625 0.890625q0.28125 0.3125 0.796875 0.546875q0.53125 0.21875 1.296875 0.46875q0.625 0.171875 1.234375 0.40625q0.625 0.234375 1.125 0.578125q0.515625 0.328125 0.8125 0.84375q0.296875 0.5 0.296875 1.25q0 0.9375 -0.53125 1.625q-0.515625 0.6875 -1.4375 1.046875q-0.90625 0.34375 -2.09375 0.34375q-1.65625 0 -2.65625 -0.671875q-1.0 -0.671875 -1.0 -1.8125q0 -0.59375 0.265625 -0.9375q0.265625 -0.34375 0.765625 -0.34375q0.453125 0 0.75 0.265625q0.3125 0.25 0.3125 0.6875q0 0.34375 -0.203125 0.671875q-0.1875 0.3125 -0.46875 0.453125q0.25 0.359375 0.875 0.59375q0.625 0.234375 1.421875 0.234375z" fill-rule="nonzero"/></g></svg>