<svg version="1.1" viewBox="0.0 0.0 508.00787401574803 133.0" fill="none" stroke="none" stroke-linecap="square" stroke-miterlimit="10" xmlns:xlink="http://www.w3.org/1999/xlink" xmlns="http://www.w3.org/2000/svg"><clipPath id="p.0"><path d="m0 0l508.00787 0l0 133.0l-508.00787 0l0 -133.0z" clip-rule="nonzero"/></clipPath><g clip-path="url(#p.0)"><path fill="#000000" fill-opacity="0.0" d="m0 0l508.00787 0l0 133.0l-508.00787 0z" fill-rule="evenodd"/><path fill="#000000" fill-opacity="0.0" d="m-1.3503937 20.720472l510.70868 0l0 91.55905l-510.70868 0z" fill-rule="evenodd"/><path fill="#000000" d="m95.46151 102.222496q-11.625 0 -17.71875 -7.578125q-6.09375 -7.59375 -6.09375 -20.265625q0 -8.359375 3.171875 -14.6875q3.171875 -6.34375 8.875 -9.796875q5.71875 -3.453125 13.015625 -3.453125q8.921875 0 13.859375 4.953125q4.953125 4.9375 5.234375 14.15625q0 5.84375 -0.671875 8.921875l-33.015625 0q0.1875 9.5 4.40625 15.3125q4.234375 5.8125 12.015625 5.8125q3.828125 0 8.0 -1.390625q4.1875 -1.40625 6.484375 -3.3125l1.828125 4.21875q-2.78125 2.875 -8.265625 5.0q-5.46875 2.109375 -11.125 2.109375zm9.796875 -32.84375q0.28125 -2.015625 0.28125 -4.125q-0.09375 -6.234375 -2.640625 -9.828125q-2.546875 -3.609375 -8.015625 -3.609375q-5.5625 0 -8.875 4.03125q-3.3125 4.03125 -3.796875 13.53125l23.046875 0zm26.489616 -15.15625l-9.031258 0l0 -4.421875l9.031258 -1.828125l0 -4.515625q0 -5.9375 3.109375 -10.921875q3.125 -5.000002 8.15625 -7.921877q5.046875 -2.9375 10.71875 -2.9375q3.265625 0 5.65625 0.859375l0 9.593752q-0.859375 -0.7656269 -3.40625 -1.4843769q-2.53125 -0.71875 -5.609375 -0.71875q-4.515625 0 -6.578125 2.359377q-2.0625 2.34375 -2.0625 8.109375l0 7.578125l13.25 0l0 6.25l-13.25 0l0 41.46875l10.65625 0.765625l0 4.703125l-28.796883 0l0 -4.703125l8.156258 -0.859375l0 -41.375zm42.046875 -15.9375q-3.0625 0 -4.609375 -1.734375q-1.53125 -1.734375 -1.53125 -4.421875q0 -3.062502 1.875 -5.078127q1.875 -2.015625 5.140625 -2.015625q3.265625 0 4.796875 1.734375q1.53125 1.71875 1.53125 4.40625q0 3.265627 -1.875 5.187502q-1.859375 1.921875 -5.21875 1.921875l-0.109375 0zm-3.828125 16.984375l-7.296875 -1.71875l0 -5.09375l14.875 -1.828125l0.1875 0l2.21875 1.734375l0 47.328125l7.671875 0.765625l0 4.703125l-25.4375 0l0 -4.703125l7.78125 -0.859375l0 -40.328125zm23.32109 19.59375q0 -7.96875 3.109375 -14.40625q3.125 -6.4375 9.21875 -10.21875q6.09375 -3.796875 14.640625 -3.796875q4.125 0 7.09375 0.765625q2.984375 0.765625 7.125 2.109375l-0.390625 14.78125l-6.234375 0l-2.125 -9.78125q-0.5625 -2.6875 -7.296875 -2.6875q-6.71875 0 -10.609375 5.421875q-3.875 5.421875 -3.875 15.40625q0 11.328125 4.359375 17.234375q4.375 5.90625 11.375 5.90625q4.03125 0 7.625 -1.25q3.609375 -1.25 6.203125 -2.984375l1.828125 3.84375q-2.59375 2.6875 -7.640625 4.859375q-5.03125 2.15625 -10.21875 2.15625q-7.875 0 -13.296875 -3.546875q-5.421875 -3.5625 -8.15625 -9.75q-2.734375 -6.203125 -2.734375 -14.0625zm61.71672 -36.578125q-3.0625 0 -4.609375 -1.734375q-1.53125 -1.734375 -1.53125 -4.421875q0 -3.062502 1.875 -5.078127q1.875 -2.015625 5.140625 -2.015625q3.2656097 0 4.7968597 1.734375q1.53125 1.71875 1.53125 4.40625q0 3.265627 -1.875 5.187502q-1.859375 1.921875 -5.2187347 1.921875l-0.109375 0zm-3.828125 16.984375l-7.296875 -1.71875l0 -5.09375l14.874985 -1.828125l0.1875 0l2.21875 1.734375l0 47.328125l7.671875 0.765625l0 4.703125l-25.437485 0l0 -4.703125l7.78125 -0.859375l0 -40.328125zm48.09297 46.953125q-11.625 0 -17.71875 -7.578125q-6.09375 -7.59375 -6.09375 -20.265625q0 -8.359375 3.171875 -14.6875q3.171875 -6.34375 8.875 -9.796875q5.71875 -3.453125 13.015625 -3.453125q8.921875 0 13.859375 4.953125q4.953125 4.9375 5.234375 14.15625q0 5.84375 -0.671875 8.921875l-33.015625 0q0.1875 9.5 4.40625 15.3125q4.234375 5.8125 12.015625 5.8125q3.828125 0 8.0 -1.390625q4.1875 -1.40625 6.484375 -3.3125l1.828125 4.21875q-2.78125 2.875 -8.265625 5.0q-5.46875 2.109375 -11.125 2.109375zm9.796875 -32.84375q0.28125 -2.015625 0.28125 -4.125q-0.09375 -6.234375 -2.640625 -9.828125q-2.546875 -3.609375 -8.015625 -3.609375q-5.5625 0 -8.875 4.03125q-3.3125 4.03125 -3.796875 13.53125l23.046875 0zm24.567749 -14.109375l-6.90625 -1.71875l0 -5.1875l13.71875 -1.734375l0.296875 0l2.015625 1.734375l0 4.03125l-0.09375 2.296875q3.453125 -3.0625 9.109375 -5.5625q5.671875 -2.5 10.859375 -2.5q6.046875 0 9.359375 2.3125q3.3125 2.296875 4.65625 7.046875q1.34375 4.75 1.34375 12.8125l0 26.890625l6.71875 0.671875l0 4.796875l-22.75 0l0 -4.703125l5.953125 -0.765625l0 -26.984375q0 -5.65625 -0.78125 -8.875q-0.765625 -3.21875 -2.875 -4.796875q-2.109375 -1.59375 -6.140625 -1.59375q-3.453125 0 -7.390625 1.734375q-3.9375 1.734375 -7.015625 4.03125l0 36.390625l6.53125 0.859375l0 4.703125l-22.65625 0l0 -4.703125l6.046875 -0.859375l0 -40.328125zm67.68146 -1.25l-1.734375 9.125l-5.84375 0l0 -15.265625l40.796875 0l1.921875 4.125l-28.234375 37.828125l-6.625 5.953125l25.828125 -0.859375l4.03125 -10.75l5.578125 0.671875l-1.734375 16.3125l-43.109375 0l-2.015625 -4.21875l28.703125 -37.4375l6.34375 -6.15625l-23.90625 0.671875z" fill-rule="nonzero"/></g></svg>