<svg version="1.1" viewBox="0.0 0.0 357.0 150.0" fill="none" stroke="none" stroke-linecap="square" stroke-miterlimit="10" xmlns:xlink="http://www.w3.org/1999/xlink" xmlns="http://www.w3.org/2000/svg"><clipPath id="p.0"><path d="m0 0l357.0 0l0 150.0l-357.0 0l0 -150.0z" clip-rule="nonzero"/></clipPath><g clip-path="url(#p.0)"><path fill="#000000" fill-opacity="0.0" d="m0 0l357.0 0l0 150.0l-357.0 0z" fill-rule="evenodd"/><path fill="#000000" fill-opacity="0.0" d="m112.501335 10.501312l244.50394 0l0 91.55905l-244.50394 0z" fill-rule="evenodd"/><path fill="#000000" d="m126.48571 79.22084l0 -42.6875l19.015633 0q5.4375 0 8.703125 2.984375q3.265625 2.96875 3.265625 7.890625q0 3.78125 -2.078125 6.40625q-2.078125 2.625 -5.40625 3.390625q3.390625 0.515625 5.84375 3.59375q2.46875 3.0625 2.46875 6.90625q0 5.25 -3.296875 8.390625q-3.296875 3.125 -9.046875 3.125l-19.468758 0zm18.125008 -24.1875q3.640625 0 5.5 -1.953125q1.859375 -1.953125 1.859375 -4.90625q0 -2.875 -1.859375 -4.890625q-1.859375 -2.015625 -5.5 -2.015625l-12.8125 0l0 13.765625l12.8125 0zm0.25 19.453125q3.78125 0 5.859375 -1.953125q2.078125 -1.953125 2.078125 -5.40625q0 -3.265625 -2.1875 -5.3125q-2.171875 -2.046875 -5.75 -2.046875l-13.0625 0l0 14.71875l13.0625 0zm21.693436 4.734375l0 -30.90625l4.796875 0l0 4.984375q4.296875 -5.625 10.3125 -5.625l0 4.921875l-1.921875 -0.1875q-2.171875 0 -4.796875 1.5625q-2.625 1.5625 -3.59375 3.359375l0 21.890625l-4.796875 0zm23.494965 -35.328125q-1.28125 0 -2.25 -0.921875q-0.953125 -0.9375 -0.953125 -2.28125q0 -1.34375 0.953125 -2.296875q0.96875 -0.96875 2.25 -0.96875q1.34375 0 2.296875 0.96875q0.96875 0.953125 0.96875 2.296875q0 1.34375 -0.96875 2.28125q-0.953125 0.921875 -2.296875 0.921875zm-2.375 35.328125l0 -30.90625l4.796875 0l0 30.90625l-4.796875 0zm26.821854 12.546875q-3.96875 0 -6.859375 -0.96875q-2.875 -0.953125 -5.625 -3.640625l2.4375 -3.578125q1.921875 2.296875 4.3125 3.25q2.40625 0.96875 5.734375 0.96875q4.734375 0 7.328125 -2.46875q2.59375 -2.46875 2.59375 -6.8125l0 -4.421875q-1.671875 2.375 -4.390625 3.953125q-2.71875 1.5625 -5.984375 1.5625q-6.265625 0 -10.015625 -4.421875q-3.734375 -4.421875 -3.734375 -11.578125q0 -7.4375 3.796875 -11.75q3.8125 -4.328125 9.953125 -4.328125q6.40625 0 10.375 5.453125l0 -4.671875l4.796875 0l0 30.015625q0 6.515625 -3.84375 9.96875q-3.84375 3.46875 -10.875 3.46875zm0.703125 -16.390625q2.625 0 5.21875 -1.40625q2.59375 -1.40625 4.0 -3.640625l0 -13.515625q-1.40625 -2.234375 -4.03125 -3.609375q-2.625 -1.375 -5.1875 -1.375q-4.546875 0 -7.234375 3.265625q-2.6875 3.265625 -2.6875 8.515625q0 5.3125 2.75 8.546875q2.75 3.21875 7.171875 3.21875zm42.939056 3.84375l0 -3.515625q-3.90625 4.28125 -10.234375 4.28125q-4.671875 0 -7.75 -2.9375q-3.0625 -2.953125 -3.0625 -7.296875q0 -4.484375 3.03125 -7.328125q3.046875 -2.84375 7.78125 -2.84375q6.65625 0 10.234375 4.21875l0 -5.5625q0 -3.140625 -2.203125 -4.828125q-2.203125 -1.703125 -5.609375 -1.703125q-5.4375 0 -9.46875 4.28125l-2.234375 -3.328125q4.921875 -5.125 12.34375 -5.125q5.703125 0 8.828125 2.765625q3.140625 2.75 3.140625 7.671875l0 21.25l-4.796875 0zm-8.515625 -2.6875q5.703125 0 8.515625 -3.84375l0 -5.828125q-2.8125 -3.828125 -8.515625 -3.828125q-3.390625 0 -5.5 1.890625q-2.109375 1.875 -2.109375 4.890625q0 2.9375 2.109375 4.828125q2.109375 1.890625 5.5 1.890625zm45.321686 2.6875l0 -4.609375q-1.734375 2.375 -4.453125 3.875q-2.71875 1.5 -5.984375 1.5q-6.203125 0 -9.984375 -4.40625q-3.765625 -4.421875 -3.765625 -11.78125q0 -7.421875 3.796875 -11.84375q3.8125 -4.421875 9.953125 -4.421875q3.140625 0 5.859375 1.453125q2.71875 1.4375 4.578125 4.0l0 -16.453125l4.796875 0l0 42.6875l-4.796875 0zm-9.28125 -3.515625q2.875 0 5.4375 -1.40625q2.5625 -1.421875 3.84375 -3.46875l0 -14.015625q-1.28125 -2.046875 -3.84375 -3.515625q-2.5625 -1.46875 -5.4375 -1.46875q-4.484375 0 -7.203125 3.265625q-2.71875 3.265625 -2.71875 8.703125q0 5.3125 2.6875 8.609375q2.6875 3.296875 7.234375 3.296875zm37.62805 4.28125q-6.96875 0 -11.359375 -4.53125q-4.375 -4.546875 -4.375 -11.71875q0 -6.859375 4.34375 -11.53125q4.359375 -4.671875 10.875 -4.671875q6.65625 0 10.75 4.609375q4.109375 4.609375 4.109375 11.96875l0 1.21875l-25.03125 0q0.25 4.734375 3.421875 7.71875q3.171875 2.96875 7.71875 2.96875q5.625 0 9.53125 -3.90625l2.3125 3.140625q-4.75 4.734375 -12.296875 4.734375zm9.609375 -18.171875q0 -4.296875 -2.828125 -7.296875q-2.8125 -3.015625 -7.359375 -3.015625q-4.28125 0 -7.140625 3.015625q-2.84375 3.0 -2.96875 7.296875l20.296875 0z" fill-rule="nonzero"/><path fill="#000000" fill-opacity="0.0" d="m112.50131 89.22572l235.65353 0l0 58.078735l-235.65353 0z" fill-rule="evenodd"/><path fill="#000000" d="m122.07944 100.74759l11.125 0l0 3.921875l-0.96875 0l-0.609375 -2.796875l-3.046875 0l0 11.0625l1.96875 0.453125l0 0.796875l-5.8125 0l0 -0.796875l1.96875 -0.453125l0 -11.0625l-3.078125 0l-0.578125 2.796875l-0.96875 0l0 -3.921875zm20.104645 8.515625l-6.5 0q0 1.359375 0.375 2.25q0.359375 0.859375 1.046875 1.234375q0.703125 0.375 1.5 0.375q0.875 0 1.59375 -0.359375q0.734375 -0.375 1.3125 -1.0l0.609375 0.4375q-0.65625 0.90625 -1.59375 1.546875q-0.9375 0.625 -2.40625 0.625q-1.28125 0 -2.28125 -0.546875q-0.984375 -0.5625 -1.5 -1.625q-0.28125 -0.578125 -0.421875 -1.28125q-0.125 -0.703125 -0.125 -1.515625q0 -2.609375 1.203125 -4.046875q1.203125 -1.4375 3.28125 -1.4375q1.890625 0 2.921875 1.1875q1.046875 1.1875 1.046875 3.28125q0 0.1875 -0.015625 0.34375q0 0.15625 -0.046875 0.53125zm-4.015625 -4.328125q-2.25 0 -2.46875 3.40625l4.65625 0l0 -0.609375q0 -1.34375 -0.5625 -2.0625q-0.5625 -0.734375 -1.625 -0.734375zm10.539627 -1.015625q1.078125 0 1.859375 0.375q0.796875 0.359375 1.234375 1.015625q0.4375 0.640625 0.4375 1.53125q0 0.6875 -0.296875 1.0625q-0.28125 0.375 -0.859375 0.375q-0.515625 0 -0.828125 -0.296875q-0.296875 -0.3125 -0.296875 -0.8125q0 -0.46875 0.25 -0.796875q0.25 -0.34375 0.671875 -0.46875q-0.28125 -0.546875 -0.796875 -0.78125q-0.5 -0.25 -1.265625 -0.25q-1.53125 0 -2.234375 1.0q-0.703125 1.0 -0.703125 3.109375q0 0.90625 0.125 1.578125q0.125 0.65625 0.359375 1.125q0.375 0.6875 0.984375 1.0625q0.625 0.375 1.46875 0.375q0.859375 0 1.640625 -0.375q0.78125 -0.375 1.34375 -1.0625l0.5625 0.453125q-0.75 1.125 -1.71875 1.6875q-0.96875 0.546875 -2.28125 0.546875q-1.296875 0 -2.265625 -0.53125q-0.953125 -0.53125 -1.5 -1.5625q-0.671875 -1.25 -0.671875 -3.015625q0 -1.625 0.578125 -2.8125q0.59375 -1.203125 1.671875 -1.859375q1.09375 -0.671875 2.53125 -0.671875zm12.718506 9.140625l0 -4.15625q0 -1.21875 -0.0625 -1.8125q-0.0625 -0.59375 -0.234375 -0.921875q-0.453125 -0.921875 -1.640625 -0.921875q-0.53125 0 -1.015625 0.1875q-0.484375 0.1875 -0.859375 0.5q-0.40625 0.359375 -0.609375 0.859375q-0.1875 0.484375 -0.21875 1.21875l0 5.046875l1.25 0.359375l0 0.765625l-4.5 0l0 -0.765625l1.4375 -0.359375l0 -12.3125l-1.4375 -0.34375l0 -0.765625l3.25 0l0 6.21875q0.546875 -0.890625 1.46875 -1.40625q0.9375 -0.53125 2.0 -0.53125q0.734375 0 1.328125 0.265625q0.609375 0.265625 0.96875 0.75q0.359375 0.515625 0.515625 1.46875q0.171875 0.9375 0.171875 2.53125l0 4.125l1.4375 0.359375l0 0.765625l-4.5 0l0 -0.765625l1.25 -0.359375zm5.764633 0l0 -7.828125l-1.4375 -0.359375l0 -0.765625l2.6875 0l0.40625 1.875l0.078125 0q0.5625 -0.953125 1.515625 -1.5q0.953125 -0.5625 2.03125 -0.5625q1.546875 0 2.296875 1.015625q0.375 0.515625 0.53125 1.46875q0.15625 0.9375 0.15625 2.53125l0 4.125l1.4375 0.359375l0 0.765625l-4.5 0l0 -0.765625l1.25 -0.359375l0 -4.15625q0 -1.21875 -0.0625 -1.8125q-0.0625 -0.59375 -0.234375 -0.921875q-0.21875 -0.453125 -0.640625 -0.6875q-0.421875 -0.234375 -1.0 -0.234375q-1.078125 0 -1.875 0.6875q-0.75 0.6875 -0.828125 2.15625l0 4.96875l1.25 0.359375l0 0.765625l-4.5 0l0 -0.765625l1.4375 -0.359375zm12.219849 -7.828125l-1.4375 -0.359375l0 -0.765625l3.25 0l0 8.953125l1.4375 0.359375l0 0.765625l-4.6875 0l0 -0.765625l1.4375 -0.359375l0 -7.828125zm-0.265625 -4.125q0 -0.546875 0.3125 -0.859375q0.328125 -0.3125 0.84375 -0.3125q0.546875 0 0.859375 0.3125q0.3125 0.3125 0.3125 0.859375q0 0.515625 -0.3125 0.84375q-0.3125 0.3125 -0.859375 0.3125q-0.53125 0 -0.84375 -0.296875q-0.3125 -0.3125 -0.3125 -0.859375zm9.61763 2.8125q1.078125 0 1.859375 0.375q0.796875 0.359375 1.234375 1.015625q0.4375 0.640625 0.4375 1.53125q0 0.6875 -0.296875 1.0625q-0.28125 0.375 -0.859375 0.375q-0.515625 0 -0.828125 -0.296875q-0.296875 -0.3125 -0.296875 -0.8125q0 -0.46875 0.25 -0.796875q0.25 -0.34375 0.671875 -0.46875q-0.28125 -0.546875 -0.796875 -0.78125q-0.5 -0.25 -1.265625 -0.25q-1.53125 0 -2.234375 1.0q-0.703125 1.0 -0.703125 3.109375q0 0.90625 0.125 1.578125q0.125 0.65625 0.359375 1.125q0.375 0.6875 0.984375 1.0625q0.625 0.375 1.46875 0.375q0.859375 0 1.640625 -0.375q0.78125 -0.375 1.34375 -1.0625l0.5625 0.453125q-0.75 1.125 -1.71875 1.6875q-0.96875 0.546875 -2.28125 0.546875q-1.296875 0 -2.265625 -0.53125q-0.953125 -0.53125 -1.5 -1.5625q-0.671875 -1.25 -0.671875 -3.015625q0 -1.625 0.578125 -2.8125q0.59375 -1.203125 1.671875 -1.859375q1.09375 -0.671875 2.53125 -0.671875zm5.062256 8.078125q0 -1.453125 1.359375 -2.28125q1.375 -0.84375 4.515625 -1.3125q-0.0625 -1.109375 -0.203125 -1.71875q-0.125 -0.609375 -0.328125 -0.984375q-0.265625 -0.484375 -0.734375 -0.71875q-0.46875 -0.234375 -1.0 -0.234375q-0.53125 0 -0.953125 0.1875q-0.40625 0.1875 -0.5625 0.5q0.265625 0.1875 0.375 0.484375q0.125 0.296875 0.125 0.5625q0 0.46875 -0.3125 0.734375q-0.296875 0.265625 -0.75 0.265625q-0.4375 0 -0.734375 -0.296875q-0.28125 -0.296875 -0.28125 -0.828125q0 -0.796875 0.53125 -1.328125q0.546875 -0.546875 1.375 -0.828125q0.828125 -0.28125 1.671875 -0.28125q0.765625 0 1.40625 0.234375q0.640625 0.234375 1.09375 0.6875q1.15625 1.15625 1.15625 4.09375l0 2.71875q0 0.90625 0.109375 1.265625q0.125 0.34375 0.546875 0.34375l0.828125 0l0 0.5625q-1.34375 0.546875 -2.078125 0.546875q-0.578125 0 -0.78125 -0.421875q-0.1875 -0.421875 -0.1875 -1.609375l-0.078125 0q-0.578125 0.953125 -1.53125 1.5q-0.953125 0.53125 -2.046875 0.53125q-1.1875 0 -1.859375 -0.625q-0.671875 -0.640625 -0.671875 -1.75zm3.3125 1.296875q0.515625 0 1.078125 -0.265625q0.578125 -0.28125 0.96875 -0.765625q0.296875 -0.375 0.4375 -0.890625q0.140625 -0.515625 0.140625 -1.203125q0 -0.3125 -0.015625 -0.609375q-0.015625 -0.3125 -0.0625 -0.59375q-1.5 0.296875 -2.359375 0.640625q-0.859375 0.34375 -1.21875 0.828125q-0.359375 0.46875 -0.359375 1.171875q0 0.8125 0.359375 1.25q0.375 0.4375 1.03125 0.4375zm7.955902 -0.234375l0 -12.3125l-1.4375 -0.34375l0 -0.765625l3.25 0l0 13.421875l1.4375 0.359375l0 0.765625l-4.6875 0l0 -0.765625l1.4375 -0.359375zm14.1723175 -9.140625q1.078125 0 1.859375 0.375q0.796875 0.359375 1.234375 1.015625q0.4375 0.640625 0.4375 1.53125q0 0.6875 -0.296875 1.0625q-0.28125 0.375 -0.859375 0.375q-0.515625 0 -0.828125 -0.296875q-0.296875 -0.3125 -0.296875 -0.8125q0 -0.46875 0.25 -0.796875q0.25 -0.34375 0.671875 -0.46875q-0.28125 -0.546875 -0.796875 -0.78125q-0.5 -0.25 -1.265625 -0.25q-1.53125 0 -2.234375 1.0q-0.703125 1.0 -0.703125 3.109375q0 0.90625 0.125 1.578125q0.125 0.65625 0.359375 1.125q0.375 0.6875 0.984375 1.0625q0.625 0.375 1.46875 0.375q0.859375 0 1.640625 -0.375q0.78125 -0.375 1.34375 -1.0625l0.5625 0.453125q-0.75 1.125 -1.71875 1.6875q-0.96875 0.546875 -2.28125 0.546875q-1.296875 0 -2.265625 -0.53125q-0.953125 -0.53125 -1.5 -1.5625q-0.671875 -1.25 -0.671875 -3.015625q0 -1.625 0.578125 -2.8125q0.59375 -1.203125 1.671875 -1.859375q1.09375 -0.671875 2.53125 -0.671875zm14.359131 5.140625q0 1.203125 -0.375 2.296875q-0.359375 1.09375 -1.0 1.796875q-0.5625 0.625 -1.390625 0.921875q-0.8125 0.296875 -1.859375 0.296875q-1.03125 0 -1.828125 -0.28125q-0.796875 -0.296875 -1.359375 -0.890625q-0.640625 -0.6875 -0.984375 -1.703125q-0.34375 -1.03125 -0.34375 -2.21875q0 -1.21875 0.34375 -2.328125q0.359375 -1.109375 1.03125 -1.8125q0.59375 -0.640625 1.390625 -0.921875q0.796875 -0.296875 1.828125 -0.296875q1.015625 0 1.828125 0.296875q0.828125 0.28125 1.390625 0.890625q0.65625 0.6875 0.984375 1.71875q0.34375 1.03125 0.34375 2.234375zm-7.140625 0.015625q0 1.140625 0.171875 1.96875q0.171875 0.828125 0.5 1.375q0.3125 0.453125 0.75 0.71875q0.4375 0.265625 1.140625 0.265625q1.296875 0 1.921875 -0.875q0.34375 -0.484375 0.5 -1.34375q0.15625 -0.859375 0.15625 -1.984375q0 -1.109375 -0.171875 -1.953125q-0.171875 -0.84375 -0.5 -1.359375q-0.296875 -0.484375 -0.75 -0.734375q-0.453125 -0.265625 -1.171875 -0.265625q-1.296875 0 -1.875 0.859375q-0.671875 1.046875 -0.671875 3.328125zm8.701691 2.921875q0 -1.453125 1.359375 -2.28125q1.375 -0.84375 4.515625 -1.3125q-0.0625 -1.109375 -0.203125 -1.71875q-0.125 -0.609375 -0.328125 -0.984375q-0.265625 -0.484375 -0.734375 -0.71875q-0.46875 -0.234375 -1.0 -0.234375q-0.53125 0 -0.953125 0.1875q-0.40625 0.1875 -0.5625 0.5q0.265625 0.1875 0.375 0.484375q0.125 0.296875 0.125 0.5625q0 0.46875 -0.3125 0.734375q-0.296875 0.265625 -0.75 0.265625q-0.4375 0 -0.734375 -0.296875q-0.28125 -0.296875 -0.28125 -0.828125q0 -0.796875 0.53125 -1.328125q0.546875 -0.546875 1.375 -0.828125q0.828125 -0.28125 1.671875 -0.28125q0.765625 0 1.40625 0.234375q0.640625 0.234375 1.09375 0.6875q1.15625 1.15625 1.15625 4.09375l0 2.71875q0 0.90625 0.109375 1.265625q0.125 0.34375 0.546875 0.34375l0.828125 0l0 0.5625q-1.34375 0.546875 -2.078125 0.546875q-0.578125 0 -0.78125 -0.421875q-0.1875 -0.421875 -0.1875 -1.609375l-0.078125 0q-0.578125 0.953125 -1.53125 1.5q-0.953125 0.53125 -2.046875 0.53125q-1.1875 0 -1.859375 -0.625q-0.671875 -0.640625 -0.671875 -1.75zm3.3125 1.296875q0.515625 0 1.078125 -0.265625q0.578125 -0.28125 0.96875 -0.765625q0.296875 -0.375 0.4375 -0.890625q0.140625 -0.515625 0.140625 -1.203125q0 -0.3125 -0.015625 -0.609375q-0.015625 -0.3125 -0.0625 -0.59375q-1.5 0.296875 -2.359375 0.640625q-0.859375 0.34375 -1.21875 0.828125q-0.359375 0.46875 -0.359375 1.171875q0 0.8125 0.359375 1.25q0.375 0.4375 1.03125 0.4375zm11.643402 -9.375q1.078125 0 1.859375 0.375q0.796875 0.359375 1.234375 1.015625q0.4375 0.640625 0.4375 1.53125q0 0.6875 -0.296875 1.0625q-0.28125 0.375 -0.859375 0.375q-0.515625 0 -0.828125 -0.296875q-0.296875 -0.3125 -0.296875 -0.8125q0 -0.46875 0.25 -0.796875q0.25 -0.34375 0.671875 -0.46875q-0.28125 -0.546875 -0.796875 -0.78125q-0.5 -0.25 -1.265625 -0.25q-1.53125 0 -2.234375 1.0q-0.703125 1.0 -0.703125 3.109375q0 0.90625 0.125 1.578125q0.125 0.65625 0.359375 1.125q0.375 0.6875 0.984375 1.0625q0.625 0.375 1.46875 0.375q0.859375 0 1.640625 -0.375q0.78125 -0.375 1.34375 -1.0625l0.5625 0.453125q-0.75 1.125 -1.71875 1.6875q-0.96875 0.546875 -2.28125 0.546875q-1.296875 0 -2.265625 -0.53125q-0.953125 -0.53125 -1.5 -1.5625q-0.671875 -1.25 -0.671875 -3.015625q0 -1.625 0.578125 -2.8125q0.59375 -1.203125 1.671875 -1.859375q1.09375 -0.671875 2.53125 -0.671875zm12.718506 9.140625l0 -4.15625q0 -1.21875 -0.0625 -1.8125q-0.0625 -0.59375 -0.234375 -0.921875q-0.453125 -0.921875 -1.640625 -0.921875q-0.53125 0 -1.015625 0.1875q-0.484375 0.1875 -0.859375 0.5q-0.40625 0.359375 -0.609375 0.859375q-0.1875 0.484375 -0.21875 1.21875l0 5.046875l1.25 0.359375l0 0.765625l-4.5 0l0 -0.765625l1.4375 -0.359375l0 -12.3125l-1.4375 -0.34375l0 -0.765625l3.25 0l0 6.21875q0.546875 -0.890625 1.46875 -1.40625q0.9375 -0.53125 2.0 -0.53125q0.734375 0 1.328125 0.265625q0.609375 0.265625 0.96875 0.75q0.359375 0.515625 0.515625 1.46875q0.171875 0.9375 0.171875 2.53125l0 4.125l1.4375 0.359375l0 0.765625l-4.5 0l0 -0.765625l1.25 -0.359375zm5.7646484 -7.828125l-1.4375 -0.359375l0 -0.765625l3.25 0l0 8.953125l1.4375 0.359375l0 0.765625l-4.6875 0l0 -0.765625l1.4375 -0.359375l0 -7.828125zm-0.265625 -4.125q0 -0.546875 0.3125 -0.859375q0.328125 -0.3125 0.84375 -0.3125q0.546875 0 0.859375 0.3125q0.3125 0.3125 0.3125 0.859375q0 0.515625 -0.3125 0.84375q-0.3125 0.3125 -0.859375 0.3125q-0.53125 0 -0.84375 -0.296875q-0.3125 -0.3125 -0.3125 -0.859375zm6.0863647 11.953125l0 -7.828125l-1.4375 -0.359375l0 -0.765625l2.6875 0l0.40625 1.875l0.078125 0q0.5625 -0.953125 1.515625 -1.5q0.953125 -0.5625 2.03125 -0.5625q1.546875 0 2.296875 1.015625q0.375 0.515625 0.53125 1.46875q0.15625 0.9375 0.15625 2.53125l0 4.125l1.4375 0.359375l0 0.765625l-4.5 0l0 -0.765625l1.25 -0.359375l0 -4.15625q0 -1.21875 -0.0625 -1.8125q-0.0625 -0.59375 -0.234375 -0.921875q-0.21875 -0.453125 -0.640625 -0.6875q-0.421875 -0.234375 -1.0 -0.234375q-1.078125 0 -1.875 0.6875q-0.75 0.6875 -0.828125 2.15625l0 4.96875l1.25 0.359375l0 0.765625l-4.5 0l0 -0.765625l1.4375 -0.359375zm19.563599 1.3125q0 1.421875 -1.203125 2.328125q-1.203125 0.921875 -3.34375 0.921875q-1.421875 0 -2.390625 -0.28125q-0.96875 -0.28125 -1.46875 -0.8125q-0.484375 -0.515625 -0.484375 -1.25q0 -0.875 0.515625 -1.34375q0.53125 -0.484375 1.4375 -0.609375l0 -0.078125q-1.234375 -0.34375 -1.234375 -1.453125q0 -0.390625 0.1875 -0.734375q0.1875 -0.34375 0.5625 -0.640625q0.390625 -0.296875 0.984375 -0.5q-0.90625 -0.34375 -1.421875 -1.046875q-0.5 -0.71875 -0.5 -1.734375q0 -1.5 1.03125 -2.359375q1.046875 -0.859375 2.78125 -0.859375q0.875 0 1.5625 0.21875q0.6875 0.21875 1.1875 0.640625l0.625 -0.21875l1.71875 -0.828125l0.3125 0l0 1.640625l-0.3125 0l-1.3125 -0.140625l-0.625 0q0.53125 0.75 0.53125 1.796875q0 1.46875 -1.015625 2.3125q-1.015625 0.84375 -2.796875 0.84375q-0.1875 0 -0.375 0q-0.1875 -0.015625 -0.375 -0.03125q-0.75 0.109375 -1.109375 0.390625q-0.359375 0.28125 -0.359375 0.71875q0 0.421875 0.328125 0.578125q0.34375 0.15625 1.3125 0.15625l2.15625 0q1.53125 0 2.3125 0.578125q0.78125 0.5625 0.78125 1.796875zm-3.90625 -0.9375l-1.21875 0q-1.25 0 -1.8125 0.4375q-0.5625 0.421875 -0.5625 1.109375q0 1.703125 2.921875 1.703125q1.578125 0 2.40625 -0.484375q0.828125 -0.484375 0.828125 -1.421875q0 -0.75 -0.5625 -1.046875q-0.5625 -0.296875 -2.0 -0.296875zm-2.796875 -6.375q0 1.125 0.5 1.703125q0.515625 0.578125 1.59375 0.578125q1.109375 0 1.609375 -0.578125q0.5 -0.578125 0.5 -1.703125q0 -1.125 -0.5 -1.703125q-0.5 -0.578125 -1.609375 -0.578125q-1.078125 0 -1.59375 0.578125q-0.5 0.578125 -0.5 1.703125zm12.764343 -2.015625l0 -0.671875l1.8125 -0.265625l0 -0.1875q0 -2.140625 0.9375 -3.296875q0.9375 -1.171875 2.515625 -1.171875q1.109375 0 1.765625 0.53125q0.65625 0.53125 0.65625 1.34375q0 0.53125 -0.265625 0.796875q-0.25 0.265625 -0.703125 0.265625q-0.421875 0 -0.6875 -0.234375q-0.265625 -0.25 -0.265625 -0.6875q0 -0.484375 0.3125 -0.96875q-0.328125 -0.34375 -0.859375 -0.34375q-0.4375 0 -0.75 0.1875q-0.40625 0.25 -0.59375 0.703125q-0.171875 0.4375 -0.21875 0.984375q-0.03125 0.546875 -0.03125 1.15625l0 0.921875l2.390625 0l0 0.9375l-2.390625 0l0 8.015625l2.015625 0.359375l0 0.765625l-5.265625 0l0 -0.765625l1.4375 -0.359375l0 -8.015625l-1.8125 0zm16.276093 4.015625q0 1.203125 -0.375 2.296875q-0.359375 1.09375 -1.0 1.796875q-0.5625 0.625 -1.390625 0.921875q-0.8125 0.296875 -1.859375 0.296875q-1.03125 0 -1.828125 -0.28125q-0.796875 -0.296875 -1.359375 -0.890625q-0.640625 -0.6875 -0.984375 -1.703125q-0.34375 -1.03125 -0.34375 -2.21875q0 -1.21875 0.34375 -2.328125q0.359375 -1.109375 1.03125 -1.8125q0.59375 -0.640625 1.390625 -0.921875q0.796875 -0.296875 1.828125 -0.296875q1.015625 0 1.828125 0.296875q0.828125 0.28125 1.390625 0.890625q0.65625 0.6875 0.984375 1.71875q0.34375 1.03125 0.34375 2.234375zm-7.140625 0.015625q0 1.140625 0.171875 1.96875q0.171875 0.828125 0.5 1.375q0.3125 0.453125 0.75 0.71875q0.4375 0.265625 1.140625 0.265625q1.296875 0 1.921875 -0.875q0.34375 -0.484375 0.5 -1.34375q0.15625 -0.859375 0.15625 -1.984375q0 -1.109375 -0.171875 -1.953125q-0.171875 -0.84375 -0.5 -1.359375q-0.296875 -0.484375 -0.75 -0.734375q-0.453125 -0.265625 -1.171875 -0.265625q-1.296875 0 -1.875 0.859375q-0.671875 1.046875 -0.671875 3.328125zm14.279816 -3.890625q-0.0625 -0.046875 -0.171875 -0.078125q-0.109375 -0.03125 -0.203125 -0.03125q-0.21875 0 -0.484375 0.21875q-0.25 0.203125 -0.5 0.546875q-0.234375 0.34375 -0.4375 0.78125q-0.265625 0.640625 -0.421875 1.40625q-0.140625 0.75 -0.140625 1.546875l0 3.484375l2.015625 0.359375l0 0.765625l-5.265625 0l0 -0.765625l1.4375 -0.359375l0 -7.828125l-1.4375 -0.359375l0 -0.765625l2.6875 0l0.40625 2.46875l0.078125 0q0.421875 -1.265625 1.15625 -1.953125q0.734375 -0.703125 1.609375 -0.703125q0.71875 0 1.203125 0.46875q0.484375 0.453125 0.484375 1.21875q0 0.5625 -0.296875 0.890625q-0.28125 0.3125 -0.765625 0.3125q-0.484375 0 -0.765625 -0.296875q-0.28125 -0.3125 -0.28125 -0.8125q0 -0.109375 0.015625 -0.21875q0.03125 -0.109375 0.078125 -0.296875z" fill-rule="nonzero"/><path fill="#000000" d="m130.76694 131.26321l-6.5 0q0 1.359375 0.375 2.25q0.359375 0.859375 1.046875 1.234375q0.703125 0.375 1.5 0.375q0.875 0 1.59375 -0.359375q0.734375 -0.375 1.3125 -1.0l0.609375 0.4375q-0.65625 0.90625 -1.59375 1.546875q-0.9375 0.625 -2.40625 0.625q-1.28125 0 -2.28125 -0.546875q-0.984375 -0.5625 -1.5 -1.625q-0.28125 -0.578125 -0.421875 -1.28125q-0.125 -0.703125 -0.125 -1.515625q0 -2.609375 1.203125 -4.046875q1.203125 -1.4375 3.28125 -1.4375q1.890625 0 2.921875 1.1875q1.046875 1.1875 1.046875 3.28125q0 0.1875 -0.015625 0.34375q0 0.15625 -0.046875 0.53125zm-4.015625 -4.328125q-2.25 0 -2.46875 3.40625l4.65625 0l0 -0.609375q0 -1.34375 -0.5625 -2.0625q-0.5625 -0.734375 -1.625 -0.734375zm5.227127 0.109375l0 -0.671875l1.8125 -0.265625l0 -0.1875q0 -1.859375 1.0 -2.875q1.015625 -1.03125 2.8125 -1.03125q0.953125 0 1.65625 0.265625q0.71875 0.25 1.234375 0.890625q0.59375 -0.890625 1.40625 -1.296875q0.8125 -0.421875 2.15625 -0.421875q1.515625 0 2.390625 0.578125q0.875 0.5625 0.875 1.5q0 0.515625 -0.265625 0.78125q-0.25 0.265625 -0.75 0.265625q-0.4375 0 -0.671875 -0.234375q-0.234375 -0.234375 -0.234375 -0.6875q0 -0.25 0.078125 -0.484375q0.078125 -0.234375 0.21875 -0.484375q-0.296875 -0.265625 -0.734375 -0.390625q-0.421875 -0.140625 -0.90625 -0.140625q-0.328125 0 -0.671875 0.0625q-0.328125 0.0625 -0.609375 0.15625q-0.703125 0.25 -1.015625 0.921875q-0.296875 0.65625 -0.296875 1.890625l0 0.921875l5.84375 0l0 8.953125l1.4375 0.359375l0 0.765625l-4.5 0l0 -0.765625l1.25 -0.359375l0 -8.015625l-4.03125 0l0 8.015625l1.453125 0.359375l0 0.765625l-4.515625 0l0 -0.765625l1.25 -0.359375l0 -8.015625l-4.046875 0l0 8.015625l1.453125 0.359375l0 0.765625l-4.703125 0l0 -0.765625l1.4375 -0.359375l0 -8.015625l-1.8125 0zm7.671875 -0.9375l0 -0.421875q0 -1.609375 -0.453125 -2.28125q-0.4375 -0.6875 -1.484375 -0.6875q-1.03125 0 -1.578125 0.625q-0.53125 0.625 -0.53125 1.84375l0 0.921875l4.046875 0zm15.196167 -0.1875q1.078125 0 1.859375 0.375q0.796875 0.359375 1.234375 1.015625q0.4375 0.640625 0.4375 1.53125q0 0.6875 -0.296875 1.0625q-0.28125 0.375 -0.859375 0.375q-0.515625 0 -0.828125 -0.296875q-0.296875 -0.3125 -0.296875 -0.8125q0 -0.46875 0.25 -0.796875q0.25 -0.34375 0.671875 -0.46875q-0.28125 -0.546875 -0.796875 -0.78125q-0.5 -0.25 -1.265625 -0.25q-1.53125 0 -2.234375 1.0q-0.703125 1.0 -0.703125 3.109375q0 0.90625 0.125 1.578125q0.125 0.65625 0.359375 1.125q0.375 0.6875 0.984375 1.0625q0.625 0.375 1.46875 0.375q0.859375 0 1.640625 -0.375q0.78125 -0.375 1.34375 -1.0625l0.5625 0.453125q-0.75 1.125 -1.71875 1.6875q-0.96875 0.546875 -2.28125 0.546875q-1.296875 0 -2.265625 -0.53125q-0.953125 -0.53125 -1.5 -1.5625q-0.671875 -1.25 -0.671875 -3.015625q0 -1.625 0.578125 -2.8125q0.59375 -1.203125 1.671875 -1.859375q1.09375 -0.671875 2.53125 -0.671875zm6.468506 1.3125l-1.4375 -0.359375l0 -0.765625l3.25 0l0 8.953125l1.4375 0.359375l0 0.765625l-4.6875 0l0 -0.765625l1.4375 -0.359375l0 -7.828125zm-0.265625 -4.125q0 -0.546875 0.3125 -0.859375q0.328125 -0.3125 0.84375 -0.3125q0.546875 0 0.859375 0.3125q0.3125 0.3125 0.3125 0.859375q0 0.515625 -0.3125 0.84375q-0.3125 0.3125 -0.859375 0.3125q-0.53125 0 -0.84375 -0.296875q-0.3125 -0.3125 -0.3125 -0.859375zm13.24263 8.15625l-6.5 0q0 1.359375 0.375 2.25q0.359375 0.859375 1.046875 1.234375q0.703125 0.375 1.5 0.375q0.875 0 1.59375 -0.359375q0.734375 -0.375 1.3125 -1.0l0.609375 0.4375q-0.65625 0.90625 -1.59375 1.546875q-0.9375 0.625 -2.40625 0.625q-1.28125 0 -2.28125 -0.546875q-0.984375 -0.5625 -1.5 -1.625q-0.28125 -0.578125 -0.421875 -1.28125q-0.125 -0.703125 -0.125 -1.515625q0 -2.609375 1.203125 -4.046875q1.203125 -1.4375 3.28125 -1.4375q1.890625 0 2.921875 1.1875q1.046875 1.1875 1.046875 3.28125q0 0.1875 -0.015625 0.34375q0 0.15625 -0.046875 0.53125zm-4.015625 -4.328125q-2.25 0 -2.46875 3.40625l4.65625 0l0 -0.609375q0 -1.34375 -0.5625 -2.0625q-0.5625 -0.734375 -1.625 -0.734375zm7.008377 8.125l0 -7.828125l-1.4375 -0.359375l0 -0.765625l2.6875 0l0.40625 1.875l0.078125 0q0.5625 -0.953125 1.515625 -1.5q0.953125 -0.5625 2.03125 -0.5625q1.546875 0 2.296875 1.015625q0.375 0.515625 0.53125 1.46875q0.15625 0.9375 0.15625 2.53125l0 4.125l1.4375 0.359375l0 0.765625l-4.5 0l0 -0.765625l1.25 -0.359375l0 -4.15625q0 -1.21875 -0.0625 -1.8125q-0.0625 -0.59375 -0.234375 -0.921875q-0.21875 -0.453125 -0.640625 -0.6875q-0.421875 -0.234375 -1.0 -0.234375q-1.078125 0 -1.875 0.6875q-0.75 0.6875 -0.828125 2.15625l0 4.96875l1.25 0.359375l0 0.765625l-4.5 0l0 -0.765625l1.4375 -0.359375zm10.282349 -8.015625l0 -0.671875l1.8125 -0.265625l0.234375 -2.34375l1.5625 -0.234375l0 2.578125l2.390625 0l0 0.9375l-2.390625 0l0 6.65625q0 0.640625 0.015625 0.875q0.03125 0.234375 0.078125 0.375q0.0625 0.140625 0.203125 0.1875q0.15625 0.046875 0.5 0.046875l1.296875 0l0 0.53125q-0.890625 0.34375 -1.578125 0.5q-0.671875 0.15625 -1.09375 0.15625q-0.828125 0 -1.078125 -0.6875q-0.078125 -0.234375 -0.109375 -0.578125q-0.03125 -0.359375 -0.03125 -1.046875l0 -7.015625l-1.8125 0zm11.100479 0l0 -0.671875l1.8125 -0.265625l0.234375 -2.34375l1.5625 -0.234375l0 2.578125l2.390625 0l0 0.9375l-2.390625 0l0 6.65625q0 0.640625 0.015625 0.875q0.03125 0.234375 0.078125 0.375q0.0625 0.140625 0.203125 0.1875q0.15625 0.046875 0.5 0.046875l1.296875 0l0 0.53125q-0.890625 0.34375 -1.578125 0.5q-0.671875 0.15625 -1.09375 0.15625q-0.828125 0 -1.078125 -0.6875q-0.078125 -0.234375 -0.109375 -0.578125q-0.03125 -0.359375 -0.03125 -1.046875l0 -7.015625l-1.8125 0zm15.455536 4.21875l-6.5 0q0 1.359375 0.375 2.25q0.359375 0.859375 1.046875 1.234375q0.703125 0.375 1.5 0.375q0.875 0 1.59375 -0.359375q0.734375 -0.375 1.3125 -1.0l0.609375 0.4375q-0.65625 0.90625 -1.59375 1.546875q-0.9375 0.625 -2.40625 0.625q-1.28125 0 -2.28125 -0.546875q-0.984375 -0.5625 -1.5 -1.625q-0.28125 -0.578125 -0.421875 -1.28125q-0.125 -0.703125 -0.125 -1.515625q0 -2.609375 1.203125 -4.046875q1.203125 -1.4375 3.28125 -1.4375q1.890625 0 2.921875 1.1875q1.046875 1.1875 1.046875 3.28125q0 0.1875 -0.015625 0.34375q0 0.15625 -0.046875 0.53125zm-4.015625 -4.328125q-2.25 0 -2.46875 3.40625l4.65625 0l0 -0.609375q0 -1.34375 -0.5625 -2.0625q-0.5625 -0.734375 -1.625 -0.734375zm5.602127 7.0625q0 -1.453125 1.359375 -2.28125q1.375 -0.84375 4.515625 -1.3125q-0.0625 -1.109375 -0.203125 -1.71875q-0.125 -0.609375 -0.328125 -0.984375q-0.265625 -0.484375 -0.734375 -0.71875q-0.46875 -0.234375 -1.0 -0.234375q-0.53125 0 -0.953125 0.1875q-0.40625 0.1875 -0.5625 0.5q0.265625 0.1875 0.375 0.484375q0.125 0.296875 0.125 0.5625q0 0.46875 -0.3125 0.734375q-0.296875 0.265625 -0.75 0.265625q-0.4375 0 -0.734375 -0.296875q-0.28125 -0.296875 -0.28125 -0.828125q0 -0.796875 0.53125 -1.328125q0.546875 -0.546875 1.375 -0.828125q0.828125 -0.28125 1.671875 -0.28125q0.765625 0 1.40625 0.234375q0.640625 0.234375 1.09375 0.6875q1.15625 1.15625 1.15625 4.09375l0 2.71875q0 0.90625 0.109375 1.265625q0.125 0.34375 0.546875 0.34375l0.828125 0l0 0.5625q-1.34375 0.546875 -2.078125 0.546875q-0.578125 0 -0.78125 -0.421875q-0.1875 -0.421875 -0.1875 -1.609375l-0.078125 0q-0.578125 0.953125 -1.53125 1.5q-0.953125 0.53125 -2.046875 0.53125q-1.1875 0 -1.859375 -0.625q-0.671875 -0.640625 -0.671875 -1.75zm3.3125 1.296875q0.515625 0 1.078125 -0.265625q0.578125 -0.28125 0.96875 -0.765625q0.296875 -0.375 0.4375 -0.890625q0.140625 -0.515625 0.140625 -1.203125q0 -0.3125 -0.015625 -0.609375q-0.015625 -0.3125 -0.0625 -0.59375q-1.5 0.296875 -2.359375 0.640625q-0.859375 0.34375 -1.21875 0.828125q-0.359375 0.46875 -0.359375 1.171875q0 0.8125 0.359375 1.25q0.375 0.4375 1.03125 0.4375zm8.112152 -0.234375l0 -7.828125l-1.4375 -0.359375l0 -0.765625l2.6875 0l0.40625 1.875l0.078125 0q0.546875 -0.9375 1.4375 -1.5q0.90625 -0.5625 1.9375 -0.5625q0.765625 0 1.359375 0.296875q0.59375 0.28125 0.875 0.71875q0.296875 0.46875 0.484375 1.234375q0.609375 -1.046875 1.546875 -1.640625q0.953125 -0.609375 2.046875 -0.609375q0.734375 0 1.328125 0.296875q0.609375 0.28125 0.921875 0.796875q0.21875 0.34375 0.34375 0.90625q0.140625 0.5625 0.1875 1.453125q0.0625 0.875 0.0625 2.234375l0 3.453125l1.4375 0.359375l0 0.765625l-4.484375 0l0 -0.765625l1.25 -0.359375l0 -4.15625q0 -1.21875 -0.078125 -1.8125q-0.0625 -0.59375 -0.234375 -0.921875q-0.21875 -0.453125 -0.625 -0.6875q-0.390625 -0.234375 -0.9375 -0.234375q-0.46875 0 -0.921875 0.1875q-0.4375 0.1875 -0.796875 0.5q-0.40625 0.375 -0.609375 0.890625q-0.1875 0.5 -0.21875 1.265625l0 4.96875l1.25 0.359375l0 0.765625l-4.3125 0l0 -0.765625l1.25 -0.359375l0 -4.15625q0 -1.21875 -0.078125 -1.8125q-0.0625 -0.59375 -0.21875 -0.921875q-0.234375 -0.453125 -0.640625 -0.6875q-0.390625 -0.234375 -0.9375 -0.234375q-0.46875 0 -0.921875 0.1875q-0.4375 0.1875 -0.796875 0.5q-0.40625 0.375 -0.609375 0.890625q-0.1875 0.5 -0.21875 1.265625l0 4.96875l1.25 0.359375l0 0.765625l-4.5 0l0 -0.765625l1.4375 -0.359375zm20.62735 0.453125q1.046875 0 1.703125 -0.421875q0.671875 -0.4375 0.671875 -1.203125q0 -0.609375 -0.421875 -0.984375q-0.40625 -0.375 -1.015625 -0.609375q-0.59375 -0.234375 -1.21875 -0.40625q-0.765625 -0.234375 -1.46875 -0.5625q-0.703125 -0.328125 -1.15625 -0.90625q-0.453125 -0.578125 -0.453125 -1.53125q0 -1.34375 0.984375 -2.15625q0.984375 -0.8125 2.734375 -0.8125q1.5 0 2.359375 0.625q0.875 0.625 0.875 1.71875q0 0.578125 -0.265625 0.921875q-0.265625 0.34375 -0.75 0.34375q-0.421875 0 -0.703125 -0.265625q-0.28125 -0.265625 -0.28125 -0.671875q0 -0.359375 0.1875 -0.640625q0.1875 -0.296875 0.484375 -0.421875q-0.28125 -0.390625 -0.71875 -0.5625q-0.4375 -0.1875 -1.125 -0.1875q-1.125 0 -1.6875 0.40625q-0.5625 0.40625 -0.5625 1.1875q0 0.5625 0.265625 0.890625q0.28125 0.3125 0.796875 0.546875q0.53125 0.21875 1.296875 0.46875q0.625 0.171875 1.234375 0.40625q0.625 0.234375 1.125 0.578125q0.515625 0.328125 0.8125 0.84375q0.296875 0.5 0.296875 1.25q0 0.9375 -0.53125 1.625q-0.515625 0.6875 -1.4375 1.046875q-0.90625 0.34375 -2.09375 0.34375q-1.65625 0 -2.65625 -0.671875q-1.0 -0.671875 -1.0 -1.8125q0 -0.59375 0.265625 -0.9375q0.265625 -0.34375 0.765625 -0.34375q0.453125 0 0.75 0.265625q0.3125 0.25 0.3125 0.6875q0 0.34375 -0.203125 0.671875q-0.1875 0.3125 -0.46875 0.453125q0.25 0.359375 0.875 0.59375q0.625 0.234375 1.421875 0.234375z" fill-rule="nonzero"/><path fill="#000000" d="m9.005249 56.279526l0 0c0 -28.579647 23.168385 -51.74803 51.74803 -51.74803l0 0c13.724434 0 26.88675 5.452009 36.591385 15.156647c9.704636 9.704639 15.156647 22.866953 15.156647 36.591385l0 0c0 28.57965 -23.16838 51.74803 -51.74803 51.74803l0 0c-28.579647 0 -51.74803 -23.16838 -51.74803 -51.74803z" fill-rule="evenodd"/><path stroke="#000000" stroke-width="1.0" stroke-linejoin="round" stroke-linecap="butt" d="m9.005249 56.279526l0 0c0 -28.579647 23.168385 -51.74803 51.74803 -51.74803l0 0c13.724434 0 26.88675 5.452009 36.591385 15.156647c9.704636 9.704639 15.156647 22.866953 15.156647 36.591385l0 0c0 28.57965 -23.16838 51.74803 -51.74803 51.74803l0 0c-28.579647 0 -51.74803 -23.16838 -51.74803 -51.74803z" fill-rule="evenodd"/><path fill="#000000" fill-opacity="0.0" d="m13.509187 7.0354333l94.48819 0l0 98.48819l-94.48819 0z" fill-rule="evenodd"/><path fill="#ffffff" d="m58.456406 51.4239q3.46875 -5.671875 7.078125 -8.171875q3.609375 -2.515625 8.0625 -2.515625q6.1875 0 10.28125 4.390625q4.109375 4.375 4.109375 11.96875q0 7.593746 -4.109375 11.984371q-4.09375 4.375 -10.28125 4.375q-4.40625 0 -8.015625 -2.484375q-3.609375 -2.484375 -7.125 -8.203121q-2.8125 3.9374962 -6.46875 5.999996q-3.65625 2.0625 -6.984375 2.0625q-4.734375 0 -8.046875 -3.671875q-3.296875 -3.6874962 -3.296875 -10.062496q0 -6.375 3.296875 -10.03125q3.3125 -3.65625 8.046875 -3.65625q3.328125 0 6.984375 2.0625q3.65625 2.0625 6.46875 5.953125zm4.359375 5.578125q3.9375 6.046875 5.53125 7.406246q2.484375 2.109375 5.390625 2.109375q3.5625 0 5.484375 -2.7656212q1.921875 -2.765625 1.921875 -6.84375q0 -4.40625 -2.109375 -6.84375q-2.109375 -2.4375 -5.15625 -2.4375q-2.390625 0 -4.8125 1.6875q-2.40625 1.6875 -6.25 7.6875zm-8.390625 -0.09375q-4.6875 -6.609375 -8.90625 -6.609375q-2.15625 0 -3.734375 1.734375q-1.5625 1.734375 -1.5625 4.828125q0 3.1875 1.546875 4.96875q1.546875 1.78125 3.75 1.78125q1.828125 0 3.28125 -0.984375q2.53125 -1.6875 5.625 -5.71875z" fill-rule="nonzero"/></g></svg>